<mxfile host="app.diagrams.net" modified="2023-04-30T00:10:33.853Z" agent="Mozilla/5.0 (X11; Linux x86_64) AppleWebKit/537.36 (KHTML, like Gecko) Chrome/111.0.0.0 Safari/537.36" etag="1EvxrUJh-6JergdOX4vQ" version="21.1.5" type="device" pages="3">
  <diagram id="uYBjkeCotHCXiIKvjQmT" name="Release 1">
    <mxGraphModel dx="1965" dy="1063" grid="1" gridSize="10" guides="1" tooltips="1" connect="1" arrows="1" fold="1" page="1" pageScale="1" pageWidth="850" pageHeight="1100" math="0" shadow="0">
      <root>
        <mxCell id="0" />
        <mxCell id="1" parent="0" />
        <mxCell id="CG5uljRp-w0t1LXObtRs-35" style="edgeStyle=orthogonalEdgeStyle;rounded=0;orthogonalLoop=1;jettySize=auto;html=1;exitX=1;exitY=0.5;exitDx=0;exitDy=0;fontSize=12;" parent="1" source="1OWo2LmL9RRVmATbCuXr-2" edge="1">
          <mxGeometry relative="1" as="geometry">
            <mxPoint x="720" y="360.45454545454527" as="targetPoint" />
          </mxGeometry>
        </mxCell>
        <mxCell id="1OWo2LmL9RRVmATbCuXr-2" value="" style="rounded=0;whiteSpace=wrap;html=1;fillColor=#FAFAFA;" parent="1" vertex="1">
          <mxGeometry x="240" y="80" width="320" height="560" as="geometry" />
        </mxCell>
        <mxCell id="1OWo2LmL9RRVmATbCuXr-3" value="" style="rounded=1;whiteSpace=wrap;html=1;spacingTop=0;strokeColor=#000000;arcSize=3;" parent="1" vertex="1">
          <mxGeometry x="248.5" y="124" width="300" height="280" as="geometry" />
        </mxCell>
        <mxCell id="1OWo2LmL9RRVmATbCuXr-4" value="&lt;b&gt;&amp;nbsp;&lt;/b&gt;&lt;b&gt;&amp;nbsp;Gym&lt;/b&gt;" style="text;html=1;strokeColor=none;fillColor=none;align=left;verticalAlign=middle;whiteSpace=wrap;rounded=0;" parent="1" vertex="1">
          <mxGeometry x="250.5" y="128" width="150" height="30" as="geometry" />
        </mxCell>
        <mxCell id="1OWo2LmL9RRVmATbCuXr-9" value="Organisor: Jeff D" style="text;whiteSpace=wrap;html=1;" parent="1" vertex="1">
          <mxGeometry x="447.5" y="128" width="110" height="40" as="geometry" />
        </mxCell>
        <mxCell id="0cmEIUeoTL7ae0YbKwNp-1" value="&lt;b&gt;15:00 to 16:00&lt;/b&gt;" style="rounded=1;whiteSpace=wrap;html=1;strokeColor=#CCCCCC;" parent="1" vertex="1">
          <mxGeometry x="257.5" y="162" width="281" height="26" as="geometry" />
        </mxCell>
        <mxCell id="0cmEIUeoTL7ae0YbKwNp-6" value="&lt;font style=&quot;font-size: 12px;&quot;&gt;The GYM - Stetchford Retail Park&lt;/font&gt;" style="rounded=1;whiteSpace=wrap;html=1;strokeColor=#CCCCCC;align=left;spacingLeft=9;" parent="1" vertex="1">
          <mxGeometry x="257.5" y="198" width="281" height="36" as="geometry" />
        </mxCell>
        <mxCell id="0cmEIUeoTL7ae0YbKwNp-8" value="JOIN" style="rounded=1;whiteSpace=wrap;html=1;fontSize=12;strokeColor=#36393d;fillColor=#cdeb8b;" parent="1" vertex="1">
          <mxGeometry x="468.25" y="369" width="73" height="29" as="geometry" />
        </mxCell>
        <mxCell id="CG5uljRp-w0t1LXObtRs-19" value="" style="rounded=0;whiteSpace=wrap;html=1;spacingTop=0;strokeColor=#000000;" parent="1" vertex="1">
          <mxGeometry x="251" y="420" width="300" height="220" as="geometry" />
        </mxCell>
        <mxCell id="CG5uljRp-w0t1LXObtRs-20" value="&lt;b&gt;Warzone&lt;/b&gt;" style="text;html=1;strokeColor=none;fillColor=none;align=left;verticalAlign=middle;whiteSpace=wrap;rounded=0;" parent="1" vertex="1">
          <mxGeometry x="259" y="424" width="150" height="30" as="geometry" />
        </mxCell>
        <mxCell id="CG5uljRp-w0t1LXObtRs-21" value="Organisor: Andrew James" style="text;whiteSpace=wrap;html=1;" parent="1" vertex="1">
          <mxGeometry x="390" y="424" width="170" height="40" as="geometry" />
        </mxCell>
        <mxCell id="CG5uljRp-w0t1LXObtRs-29" value="&lt;b&gt;20:30 to 12:00&lt;/b&gt;" style="rounded=1;whiteSpace=wrap;html=1;strokeColor=#CCCCCC;" parent="1" vertex="1">
          <mxGeometry x="260" y="458" width="281" height="26" as="geometry" />
        </mxCell>
        <mxCell id="CG5uljRp-w0t1LXObtRs-30" value="The battle field : ) - Private match" style="rounded=1;whiteSpace=wrap;html=1;strokeColor=#CCCCCC;align=left;spacingLeft=9;" parent="1" vertex="1">
          <mxGeometry x="260" y="494" width="281" height="36" as="geometry" />
        </mxCell>
        <mxCell id="CG5uljRp-w0t1LXObtRs-36" value="" style="rounded=0;whiteSpace=wrap;html=1;fillColor=#FAFAFA;" parent="1" vertex="1">
          <mxGeometry x="720" y="80" width="320" height="560" as="geometry" />
        </mxCell>
        <mxCell id="CG5uljRp-w0t1LXObtRs-67" value="Click join on &lt;br&gt;the first event" style="text;html=1;align=center;verticalAlign=middle;resizable=0;points=[];autosize=1;strokeColor=none;fillColor=none;fontSize=12;" parent="1" vertex="1">
          <mxGeometry x="590" y="317" width="100" height="40" as="geometry" />
        </mxCell>
        <mxCell id="CG5uljRp-w0t1LXObtRs-69" style="edgeStyle=orthogonalEdgeStyle;rounded=0;orthogonalLoop=1;jettySize=auto;html=1;exitX=1;exitY=0.5;exitDx=0;exitDy=0;fontSize=12;" parent="1" edge="1">
          <mxGeometry relative="1" as="geometry">
            <mxPoint x="239.94" y="361.0045454545453" as="targetPoint" />
            <mxPoint x="79.94" y="360.55" as="sourcePoint" />
            <Array as="points">
              <mxPoint x="200" y="361" />
              <mxPoint x="200" y="361" />
            </Array>
          </mxGeometry>
        </mxCell>
        <mxCell id="CG5uljRp-w0t1LXObtRs-70" value="HOME PAGE" style="edgeLabel;html=1;align=center;verticalAlign=middle;resizable=0;points=[];fontSize=12;" parent="CG5uljRp-w0t1LXObtRs-69" vertex="1" connectable="0">
          <mxGeometry x="-0.3774" y="-1" relative="1" as="geometry">
            <mxPoint as="offset" />
          </mxGeometry>
        </mxCell>
        <mxCell id="CG5uljRp-w0t1LXObtRs-71" value="" style="rounded=0;whiteSpace=wrap;html=1;fillColor=#FFFFFF;" parent="1" vertex="1">
          <mxGeometry x="241" y="760" width="320" height="600" as="geometry" />
        </mxCell>
        <mxCell id="CG5uljRp-w0t1LXObtRs-101" style="edgeStyle=orthogonalEdgeStyle;rounded=0;orthogonalLoop=1;jettySize=auto;html=1;exitX=1;exitY=0.5;exitDx=0;exitDy=0;fontSize=12;" parent="1" edge="1">
          <mxGeometry relative="1" as="geometry">
            <mxPoint x="200.00000000000006" y="1001.4545454545453" as="targetPoint" />
            <mxPoint x="40.00000000000006" y="1001" as="sourcePoint" />
            <Array as="points">
              <mxPoint x="160.06" y="1001.45" />
              <mxPoint x="160.06" y="1001.45" />
            </Array>
          </mxGeometry>
        </mxCell>
        <mxCell id="CG5uljRp-w0t1LXObtRs-102" value="ACCOUNT" style="edgeLabel;html=1;align=center;verticalAlign=middle;resizable=0;points=[];fontSize=12;" parent="CG5uljRp-w0t1LXObtRs-101" vertex="1" connectable="0">
          <mxGeometry x="-0.3774" y="-1" relative="1" as="geometry">
            <mxPoint as="offset" />
          </mxGeometry>
        </mxCell>
        <mxCell id="CG5uljRp-w0t1LXObtRs-105" value="&lt;b&gt;TESCO EXPRESS&lt;/b&gt;" style="rounded=0;whiteSpace=wrap;html=1;spacingTop=0;strokeColor=#000000;" parent="1" vertex="1">
          <mxGeometry x="241.5" y="973" width="118.5" height="40" as="geometry" />
        </mxCell>
        <mxCell id="CG5uljRp-w0t1LXObtRs-133" value="&lt;font style=&quot;font-size: 11px;&quot;&gt;34 Following&amp;nbsp; &amp;nbsp;53 Followers&amp;nbsp; 5 circles&lt;/font&gt;" style="rounded=0;whiteSpace=wrap;html=1;spacingTop=0;strokeColor=#000000;" parent="1" vertex="1">
          <mxGeometry x="360" y="973" width="200.5" height="40" as="geometry" />
        </mxCell>
        <mxCell id="-tVnzrDwMGj6fDoywrau-6" value="Jeff Doe" style="rounded=1;whiteSpace=wrap;html=1;strokeColor=#CCCCCC;align=center;spacingLeft=0;fontSize=10;" parent="1" vertex="1">
          <mxGeometry x="259.5" y="254" width="60.5" height="25" as="geometry" />
        </mxCell>
        <mxCell id="-tVnzrDwMGj6fDoywrau-11" value="Cris path" style="rounded=1;whiteSpace=wrap;html=1;strokeColor=#CCCCCC;align=center;spacingLeft=0;fontSize=10;" parent="1" vertex="1">
          <mxGeometry x="329.5" y="254" width="60.5" height="25" as="geometry" />
        </mxCell>
        <mxCell id="-tVnzrDwMGj6fDoywrau-12" value="Hank" style="rounded=1;whiteSpace=wrap;html=1;strokeColor=#CCCCCC;align=center;spacingLeft=0;fontSize=10;" parent="1" vertex="1">
          <mxGeometry x="406" y="254" width="60.5" height="25" as="geometry" />
        </mxCell>
        <mxCell id="-tVnzrDwMGj6fDoywrau-13" value="panko" style="rounded=1;whiteSpace=wrap;html=1;strokeColor=#CCCCCC;align=center;spacingLeft=0;fontSize=10;" parent="1" vertex="1">
          <mxGeometry x="478.75" y="254" width="60.5" height="25" as="geometry" />
        </mxCell>
        <mxCell id="-tVnzrDwMGj6fDoywrau-14" value="Pete D" style="rounded=1;whiteSpace=wrap;html=1;strokeColor=#CCCCCC;align=center;spacingLeft=0;fontSize=10;" parent="1" vertex="1">
          <mxGeometry x="259.75" y="288.5" width="60.5" height="25" as="geometry" />
        </mxCell>
        <mxCell id="-tVnzrDwMGj6fDoywrau-15" value="Clock s" style="rounded=1;whiteSpace=wrap;html=1;strokeColor=#CCCCCC;align=center;spacingLeft=0;fontSize=10;" parent="1" vertex="1">
          <mxGeometry x="329.75" y="288.5" width="60.5" height="25" as="geometry" />
        </mxCell>
        <mxCell id="-tVnzrDwMGj6fDoywrau-16" value="Tom" style="rounded=1;whiteSpace=wrap;html=1;strokeColor=#CCCCCC;align=center;spacingLeft=0;fontSize=10;" parent="1" vertex="1">
          <mxGeometry x="406.25" y="288.5" width="60.5" height="25" as="geometry" />
        </mxCell>
        <mxCell id="-tVnzrDwMGj6fDoywrau-18" value="Jeff Doe" style="rounded=1;whiteSpace=wrap;html=1;strokeColor=#CCCCCC;align=center;spacingLeft=0;fontSize=10;" parent="1" vertex="1">
          <mxGeometry x="264" y="542" width="60.5" height="25" as="geometry" />
        </mxCell>
        <mxCell id="-tVnzrDwMGj6fDoywrau-19" value="Cris path" style="rounded=1;whiteSpace=wrap;html=1;strokeColor=#CCCCCC;align=center;spacingLeft=0;fontSize=10;" parent="1" vertex="1">
          <mxGeometry x="334" y="542" width="60.5" height="25" as="geometry" />
        </mxCell>
        <mxCell id="-tVnzrDwMGj6fDoywrau-20" value="Hank" style="rounded=1;whiteSpace=wrap;html=1;strokeColor=#CCCCCC;align=center;spacingLeft=0;fontSize=10;" parent="1" vertex="1">
          <mxGeometry x="410.5" y="542" width="60.5" height="25" as="geometry" />
        </mxCell>
        <mxCell id="-tVnzrDwMGj6fDoywrau-21" value="panko" style="rounded=1;whiteSpace=wrap;html=1;strokeColor=#CCCCCC;align=center;spacingLeft=0;fontSize=10;" parent="1" vertex="1">
          <mxGeometry x="483.25" y="542" width="60.5" height="25" as="geometry" />
        </mxCell>
        <mxCell id="-tVnzrDwMGj6fDoywrau-22" value="Jon ed" style="rounded=1;whiteSpace=wrap;html=1;strokeColor=#CCCCCC;align=center;spacingLeft=0;fontSize=10;" parent="1" vertex="1">
          <mxGeometry x="264.25" y="576.5" width="60.5" height="25" as="geometry" />
        </mxCell>
        <mxCell id="-tVnzrDwMGj6fDoywrau-23" value="Peasd" style="rounded=1;whiteSpace=wrap;html=1;strokeColor=#CCCCCC;align=center;spacingLeft=0;fontSize=10;" parent="1" vertex="1">
          <mxGeometry x="334.25" y="576.5" width="60.5" height="25" as="geometry" />
        </mxCell>
        <mxCell id="-tVnzrDwMGj6fDoywrau-24" value="Dave" style="rounded=1;whiteSpace=wrap;html=1;strokeColor=#CCCCCC;align=center;spacingLeft=0;fontSize=10;" parent="1" vertex="1">
          <mxGeometry x="410.75" y="576.5" width="60.5" height="25" as="geometry" />
        </mxCell>
        <mxCell id="-tVnzrDwMGj6fDoywrau-25" value="Cris" style="rounded=1;whiteSpace=wrap;html=1;strokeColor=#CCCCCC;align=center;spacingLeft=0;fontSize=10;" parent="1" vertex="1">
          <mxGeometry x="483.25" y="576.5" width="60.5" height="25" as="geometry" />
        </mxCell>
        <mxCell id="-tVnzrDwMGj6fDoywrau-26" value="Pete D" style="rounded=1;whiteSpace=wrap;html=1;strokeColor=#CCCCCC;align=center;spacingLeft=0;fontSize=10;" parent="1" vertex="1">
          <mxGeometry x="260" y="622" width="60.5" height="18" as="geometry" />
        </mxCell>
        <mxCell id="-tVnzrDwMGj6fDoywrau-27" value="Clock s" style="rounded=1;whiteSpace=wrap;html=1;strokeColor=#CCCCCC;align=center;spacingLeft=0;fontSize=10;" parent="1" vertex="1">
          <mxGeometry x="330" y="622" width="60.5" height="18" as="geometry" />
        </mxCell>
        <mxCell id="-tVnzrDwMGj6fDoywrau-28" value="Tom" style="rounded=1;whiteSpace=wrap;html=1;strokeColor=#CCCCCC;align=center;spacingLeft=0;fontSize=10;" parent="1" vertex="1">
          <mxGeometry x="406.5" y="622" width="60.5" height="18" as="geometry" />
        </mxCell>
        <mxCell id="-tVnzrDwMGj6fDoywrau-29" value="" style="endArrow=none;html=1;rounded=0;fontSize=10;exitX=0;exitY=1;exitDx=0;exitDy=0;entryX=1;entryY=1;entryDx=0;entryDy=0;" parent="1" source="1OWo2LmL9RRVmATbCuXr-2" target="1OWo2LmL9RRVmATbCuXr-2" edge="1">
          <mxGeometry width="50" height="50" relative="1" as="geometry">
            <mxPoint x="300" y="700" as="sourcePoint" />
            <mxPoint x="350" y="650" as="targetPoint" />
          </mxGeometry>
        </mxCell>
        <mxCell id="-tVnzrDwMGj6fDoywrau-30" value="Jon ed" style="rounded=1;whiteSpace=wrap;html=1;strokeColor=#CCCCCC;align=center;spacingLeft=0;fontSize=10;" parent="1" vertex="1">
          <mxGeometry x="256.75" y="328.5" width="60.5" height="25" as="geometry" />
        </mxCell>
        <mxCell id="-tVnzrDwMGj6fDoywrau-31" value="Peasd" style="rounded=1;whiteSpace=wrap;html=1;strokeColor=#CCCCCC;align=center;spacingLeft=0;fontSize=10;" parent="1" vertex="1">
          <mxGeometry x="326.75" y="328.5" width="60.5" height="25" as="geometry" />
        </mxCell>
        <mxCell id="-tVnzrDwMGj6fDoywrau-32" value="Dave" style="rounded=1;whiteSpace=wrap;html=1;strokeColor=#CCCCCC;align=center;spacingLeft=0;fontSize=10;" parent="1" vertex="1">
          <mxGeometry x="403.25" y="328.5" width="60.5" height="25" as="geometry" />
        </mxCell>
        <mxCell id="-tVnzrDwMGj6fDoywrau-33" value="Peasd" style="rounded=1;whiteSpace=wrap;html=1;strokeColor=#CCCCCC;align=center;spacingLeft=0;fontSize=10;" parent="1" vertex="1">
          <mxGeometry x="478.75" y="288.5" width="60.5" height="25" as="geometry" />
        </mxCell>
        <mxCell id="-tVnzrDwMGj6fDoywrau-34" value="" style="rounded=1;whiteSpace=wrap;html=1;spacingTop=0;strokeColor=#000000;arcSize=2;" parent="1" vertex="1">
          <mxGeometry x="730.5" y="123.09" width="300" height="280" as="geometry" />
        </mxCell>
        <mxCell id="-tVnzrDwMGj6fDoywrau-35" value="&lt;b&gt;&amp;nbsp;&lt;/b&gt;&lt;b&gt;&amp;nbsp;Gym&lt;/b&gt;" style="text;html=1;strokeColor=none;fillColor=none;align=left;verticalAlign=middle;whiteSpace=wrap;rounded=0;" parent="1" vertex="1">
          <mxGeometry x="732.5" y="127.09" width="150" height="30" as="geometry" />
        </mxCell>
        <mxCell id="-tVnzrDwMGj6fDoywrau-36" value="Organisor: Jeff D" style="text;whiteSpace=wrap;html=1;" parent="1" vertex="1">
          <mxGeometry x="929.5" y="127.09" width="110" height="40" as="geometry" />
        </mxCell>
        <mxCell id="-tVnzrDwMGj6fDoywrau-37" value="&lt;b&gt;15:00 to 16:00&lt;/b&gt;" style="rounded=1;whiteSpace=wrap;html=1;strokeColor=#CCCCCC;" parent="1" vertex="1">
          <mxGeometry x="739.5" y="161.09" width="281" height="26" as="geometry" />
        </mxCell>
        <mxCell id="-tVnzrDwMGj6fDoywrau-38" value="&lt;font style=&quot;font-size: 12px;&quot;&gt;The GYM - Stetchford Retail Park&lt;/font&gt;" style="rounded=1;whiteSpace=wrap;html=1;strokeColor=#CCCCCC;align=left;spacingLeft=9;" parent="1" vertex="1">
          <mxGeometry x="739.5" y="197.09" width="281" height="36" as="geometry" />
        </mxCell>
        <mxCell id="-tVnzrDwMGj6fDoywrau-39" value="LEAVE" style="rounded=1;whiteSpace=wrap;html=1;fontSize=12;strokeColor=#4D4D4D;fillColor=#FF6666;gradientColor=none;" parent="1" vertex="1">
          <mxGeometry x="950.25" y="368.09" width="73" height="29" as="geometry" />
        </mxCell>
        <mxCell id="-tVnzrDwMGj6fDoywrau-40" value="" style="rounded=0;whiteSpace=wrap;html=1;spacingTop=0;strokeColor=#000000;" parent="1" vertex="1">
          <mxGeometry x="733" y="419.09" width="300" height="220" as="geometry" />
        </mxCell>
        <mxCell id="-tVnzrDwMGj6fDoywrau-41" value="&lt;b&gt;Warzone&lt;/b&gt;" style="text;html=1;strokeColor=none;fillColor=none;align=left;verticalAlign=middle;whiteSpace=wrap;rounded=0;" parent="1" vertex="1">
          <mxGeometry x="741" y="423.09" width="150" height="30" as="geometry" />
        </mxCell>
        <mxCell id="-tVnzrDwMGj6fDoywrau-42" value="Organisor: Andrew James" style="text;whiteSpace=wrap;html=1;" parent="1" vertex="1">
          <mxGeometry x="872" y="423.09" width="170" height="40" as="geometry" />
        </mxCell>
        <mxCell id="-tVnzrDwMGj6fDoywrau-43" value="&lt;b&gt;20:30 to 12:00&lt;/b&gt;" style="rounded=1;whiteSpace=wrap;html=1;strokeColor=#CCCCCC;" parent="1" vertex="1">
          <mxGeometry x="742" y="457.09" width="281" height="26" as="geometry" />
        </mxCell>
        <mxCell id="-tVnzrDwMGj6fDoywrau-44" value="The battle field : ) - Private match" style="rounded=1;whiteSpace=wrap;html=1;strokeColor=#CCCCCC;align=left;spacingLeft=9;" parent="1" vertex="1">
          <mxGeometry x="742" y="493.09" width="281" height="36" as="geometry" />
        </mxCell>
        <mxCell id="-tVnzrDwMGj6fDoywrau-45" value="You" style="rounded=1;whiteSpace=wrap;html=1;strokeColor=#36393d;align=center;spacingLeft=0;fontSize=10;fillColor=#cdeb8b;" parent="1" vertex="1">
          <mxGeometry x="741.5" y="253.09" width="60.5" height="25" as="geometry" />
        </mxCell>
        <mxCell id="-tVnzrDwMGj6fDoywrau-46" value="Cris path" style="rounded=1;whiteSpace=wrap;html=1;strokeColor=#CCCCCC;align=center;spacingLeft=0;fontSize=10;" parent="1" vertex="1">
          <mxGeometry x="811.5" y="253.09" width="60.5" height="25" as="geometry" />
        </mxCell>
        <mxCell id="-tVnzrDwMGj6fDoywrau-47" value="Hank" style="rounded=1;whiteSpace=wrap;html=1;strokeColor=#CCCCCC;align=center;spacingLeft=0;fontSize=10;" parent="1" vertex="1">
          <mxGeometry x="888" y="253.09" width="60.5" height="25" as="geometry" />
        </mxCell>
        <mxCell id="-tVnzrDwMGj6fDoywrau-48" value="panko" style="rounded=1;whiteSpace=wrap;html=1;strokeColor=#CCCCCC;align=center;spacingLeft=0;fontSize=10;" parent="1" vertex="1">
          <mxGeometry x="960.75" y="253.09" width="60.5" height="25" as="geometry" />
        </mxCell>
        <mxCell id="-tVnzrDwMGj6fDoywrau-49" value="Pete D" style="rounded=1;whiteSpace=wrap;html=1;strokeColor=#CCCCCC;align=center;spacingLeft=0;fontSize=10;" parent="1" vertex="1">
          <mxGeometry x="741.75" y="287.59" width="60.5" height="25" as="geometry" />
        </mxCell>
        <mxCell id="-tVnzrDwMGj6fDoywrau-50" value="Clock s" style="rounded=1;whiteSpace=wrap;html=1;strokeColor=#CCCCCC;align=center;spacingLeft=0;fontSize=10;" parent="1" vertex="1">
          <mxGeometry x="811.75" y="287.59" width="60.5" height="25" as="geometry" />
        </mxCell>
        <mxCell id="-tVnzrDwMGj6fDoywrau-51" value="Tom" style="rounded=1;whiteSpace=wrap;html=1;strokeColor=#CCCCCC;align=center;spacingLeft=0;fontSize=10;" parent="1" vertex="1">
          <mxGeometry x="888.25" y="287.59" width="60.5" height="25" as="geometry" />
        </mxCell>
        <mxCell id="-tVnzrDwMGj6fDoywrau-52" value="Jeff Doe" style="rounded=1;whiteSpace=wrap;html=1;strokeColor=#CCCCCC;align=center;spacingLeft=0;fontSize=10;" parent="1" vertex="1">
          <mxGeometry x="746" y="541.09" width="60.5" height="25" as="geometry" />
        </mxCell>
        <mxCell id="-tVnzrDwMGj6fDoywrau-53" value="Cris path" style="rounded=1;whiteSpace=wrap;html=1;strokeColor=#CCCCCC;align=center;spacingLeft=0;fontSize=10;" parent="1" vertex="1">
          <mxGeometry x="816" y="541.09" width="60.5" height="25" as="geometry" />
        </mxCell>
        <mxCell id="-tVnzrDwMGj6fDoywrau-54" value="Hank" style="rounded=1;whiteSpace=wrap;html=1;strokeColor=#CCCCCC;align=center;spacingLeft=0;fontSize=10;" parent="1" vertex="1">
          <mxGeometry x="892.5" y="541.09" width="60.5" height="25" as="geometry" />
        </mxCell>
        <mxCell id="-tVnzrDwMGj6fDoywrau-55" value="panko" style="rounded=1;whiteSpace=wrap;html=1;strokeColor=#CCCCCC;align=center;spacingLeft=0;fontSize=10;" parent="1" vertex="1">
          <mxGeometry x="965.25" y="541.09" width="60.5" height="25" as="geometry" />
        </mxCell>
        <mxCell id="-tVnzrDwMGj6fDoywrau-56" value="Jon ed" style="rounded=1;whiteSpace=wrap;html=1;strokeColor=#CCCCCC;align=center;spacingLeft=0;fontSize=10;" parent="1" vertex="1">
          <mxGeometry x="746.25" y="575.59" width="60.5" height="25" as="geometry" />
        </mxCell>
        <mxCell id="-tVnzrDwMGj6fDoywrau-57" value="Peasd" style="rounded=1;whiteSpace=wrap;html=1;strokeColor=#CCCCCC;align=center;spacingLeft=0;fontSize=10;" parent="1" vertex="1">
          <mxGeometry x="816.25" y="575.59" width="60.5" height="25" as="geometry" />
        </mxCell>
        <mxCell id="-tVnzrDwMGj6fDoywrau-58" value="Dave" style="rounded=1;whiteSpace=wrap;html=1;strokeColor=#CCCCCC;align=center;spacingLeft=0;fontSize=10;" parent="1" vertex="1">
          <mxGeometry x="892.75" y="575.59" width="60.5" height="25" as="geometry" />
        </mxCell>
        <mxCell id="-tVnzrDwMGj6fDoywrau-59" value="Cris" style="rounded=1;whiteSpace=wrap;html=1;strokeColor=#CCCCCC;align=center;spacingLeft=0;fontSize=10;" parent="1" vertex="1">
          <mxGeometry x="965.25" y="575.59" width="60.5" height="25" as="geometry" />
        </mxCell>
        <mxCell id="-tVnzrDwMGj6fDoywrau-60" value="Pete D" style="rounded=1;whiteSpace=wrap;html=1;strokeColor=#CCCCCC;align=center;spacingLeft=0;fontSize=10;" parent="1" vertex="1">
          <mxGeometry x="742" y="621.09" width="60.5" height="18" as="geometry" />
        </mxCell>
        <mxCell id="-tVnzrDwMGj6fDoywrau-61" value="Clock s" style="rounded=1;whiteSpace=wrap;html=1;strokeColor=#CCCCCC;align=center;spacingLeft=0;fontSize=10;" parent="1" vertex="1">
          <mxGeometry x="812" y="621.09" width="60.5" height="18" as="geometry" />
        </mxCell>
        <mxCell id="-tVnzrDwMGj6fDoywrau-62" value="Tom" style="rounded=1;whiteSpace=wrap;html=1;strokeColor=#CCCCCC;align=center;spacingLeft=0;fontSize=10;" parent="1" vertex="1">
          <mxGeometry x="888.5" y="621.09" width="60.5" height="18" as="geometry" />
        </mxCell>
        <mxCell id="-tVnzrDwMGj6fDoywrau-63" value="" style="endArrow=none;html=1;rounded=0;fontSize=10;exitX=0;exitY=1;exitDx=0;exitDy=0;entryX=1;entryY=1;entryDx=0;entryDy=0;" parent="1" edge="1">
          <mxGeometry width="50" height="50" relative="1" as="geometry">
            <mxPoint x="722" y="639.09" as="sourcePoint" />
            <mxPoint x="1042" y="639.09" as="targetPoint" />
          </mxGeometry>
        </mxCell>
        <mxCell id="-tVnzrDwMGj6fDoywrau-64" value="Jon ed" style="rounded=1;whiteSpace=wrap;html=1;strokeColor=#CCCCCC;align=center;spacingLeft=0;fontSize=10;" parent="1" vertex="1">
          <mxGeometry x="738.75" y="327.59" width="60.5" height="25" as="geometry" />
        </mxCell>
        <mxCell id="-tVnzrDwMGj6fDoywrau-65" value="Peasd" style="rounded=1;whiteSpace=wrap;html=1;strokeColor=#CCCCCC;align=center;spacingLeft=0;fontSize=10;" parent="1" vertex="1">
          <mxGeometry x="808.75" y="327.59" width="60.5" height="25" as="geometry" />
        </mxCell>
        <mxCell id="-tVnzrDwMGj6fDoywrau-66" value="Dave" style="rounded=1;whiteSpace=wrap;html=1;strokeColor=#CCCCCC;align=center;spacingLeft=0;fontSize=10;" parent="1" vertex="1">
          <mxGeometry x="885.25" y="327.59" width="60.5" height="25" as="geometry" />
        </mxCell>
        <mxCell id="-tVnzrDwMGj6fDoywrau-67" value="Peasd" style="rounded=1;whiteSpace=wrap;html=1;strokeColor=#CCCCCC;align=center;spacingLeft=0;fontSize=10;" parent="1" vertex="1">
          <mxGeometry x="960.75" y="287.59" width="60.5" height="25" as="geometry" />
        </mxCell>
        <mxCell id="cce0aqDnhDaoAvsTkiZ--3" value="" style="shape=image;verticalLabelPosition=bottom;labelBackgroundColor=default;verticalAlign=top;aspect=fixed;imageAspect=0;image=https://www.nasa.gov/sites/default/files/styles/full_width/public/thumbnails/image/main_image_star-forming_region_carina_nircam_final-1280.jpg;sketch=0;" parent="1" vertex="1">
          <mxGeometry x="241" y="790" width="320" height="185.23" as="geometry" />
        </mxCell>
        <mxCell id="nK9MYsdNtB3VwSlki6gc-3" value="My events [2]" style="rounded=0;whiteSpace=wrap;html=1;" parent="1" vertex="1">
          <mxGeometry x="720.5" y="80" width="80" height="30" as="geometry" />
        </mxCell>
        <mxCell id="nK9MYsdNtB3VwSlki6gc-4" value="All Events [5]" style="rounded=0;whiteSpace=wrap;html=1;" parent="1" vertex="1">
          <mxGeometry x="801" y="80" width="80" height="30" as="geometry" />
        </mxCell>
        <mxCell id="nK9MYsdNtB3VwSlki6gc-7" value="" style="rounded=0;whiteSpace=wrap;html=1;" parent="1" vertex="1">
          <mxGeometry x="881.5" y="80" width="80" height="30" as="geometry" />
        </mxCell>
        <mxCell id="nK9MYsdNtB3VwSlki6gc-8" value="" style="sketch=0;outlineConnect=0;fontColor=#232F3E;gradientColor=none;strokeColor=#232F3E;fillColor=#ffffff;dashed=0;verticalLabelPosition=bottom;verticalAlign=top;align=center;html=1;fontSize=12;fontStyle=0;aspect=fixed;shape=mxgraph.aws4.resourceIcon;resIcon=mxgraph.aws4.user;rounded=0;" parent="1" vertex="1">
          <mxGeometry x="908.75" y="82.5" width="25" height="25" as="geometry" />
        </mxCell>
        <mxCell id="-155fi9hhfYQuB9agzGG-10" value="" style="shape=singleArrow;direction=west;whiteSpace=wrap;html=1;fillColor=#000000;" parent="1" vertex="1">
          <mxGeometry x="252.75" y="770" width="33.25" height="10" as="geometry" />
        </mxCell>
        <mxCell id="-155fi9hhfYQuB9agzGG-12" value="" style="rounded=0;whiteSpace=wrap;html=1;fillColor=#FFFFFF;" parent="1" vertex="1">
          <mxGeometry x="1040.75" y="765.5" width="320" height="600" as="geometry" />
        </mxCell>
        <mxCell id="KD6KZySyhLGVUC2mEdNo-5" value="" style="shape=singleArrow;direction=west;whiteSpace=wrap;html=1;fillColor=#000000;" parent="1" vertex="1">
          <mxGeometry x="1056.75" y="776.5" width="33.25" height="10" as="geometry" />
        </mxCell>
        <mxCell id="KD6KZySyhLGVUC2mEdNo-7" value="uni friends" style="rounded=1;whiteSpace=wrap;html=1;fillColor=#E6E6E6;align=left;spacingLeft=5;strokeColor=#36393d;" parent="1" vertex="1">
          <mxGeometry x="1049.5" y="845.5" width="300" height="20" as="geometry" />
        </mxCell>
        <mxCell id="KD6KZySyhLGVUC2mEdNo-9" value="Jane" style="rounded=1;whiteSpace=wrap;html=1;fillColor=#f5f5f5;align=left;spacingLeft=5;strokeColor=#666666;fontColor=#333333;" parent="1" vertex="1">
          <mxGeometry x="1060.25" y="874.12" width="289.25" height="20" as="geometry" />
        </mxCell>
        <mxCell id="KD6KZySyhLGVUC2mEdNo-12" value="Add Member" style="text;html=1;strokeColor=none;fillColor=none;align=center;verticalAlign=middle;whiteSpace=wrap;rounded=0;fontColor=#00CC00;fontSize=9;" parent="1" vertex="1">
          <mxGeometry x="1272.5" y="853" width="88" height="5" as="geometry" />
        </mxCell>
        <mxCell id="KD6KZySyhLGVUC2mEdNo-13" value="Add Circle" style="text;html=1;strokeColor=none;fillColor=none;align=center;verticalAlign=middle;whiteSpace=wrap;rounded=0;fontColor=#00CC00;fontSize=9;" parent="1" vertex="1">
          <mxGeometry x="1289" y="825.5" width="88" height="5" as="geometry" />
        </mxCell>
        <mxCell id="KD6KZySyhLGVUC2mEdNo-14" value="" style="endArrow=none;html=1;rounded=0;fontSize=9;fontColor=#00CC00;" parent="1" edge="1">
          <mxGeometry width="50" height="50" relative="1" as="geometry">
            <mxPoint x="1039.5" y="835.5" as="sourcePoint" />
            <mxPoint x="1359.5" y="835.5" as="targetPoint" />
          </mxGeometry>
        </mxCell>
        <mxCell id="KD6KZySyhLGVUC2mEdNo-15" value="&lt;font color=&quot;#000000&quot; style=&quot;font-size: 13px;&quot;&gt;Circles&lt;/font&gt;" style="text;html=1;strokeColor=none;fillColor=none;align=center;verticalAlign=middle;whiteSpace=wrap;rounded=0;fontSize=9;fontColor=#00CC00;" parent="1" vertex="1">
          <mxGeometry x="1043.38" y="805.5" width="60" height="30" as="geometry" />
        </mxCell>
        <mxCell id="KD6KZySyhLGVUC2mEdNo-16" value="Remove" style="text;html=1;strokeColor=none;fillColor=none;align=center;verticalAlign=middle;whiteSpace=wrap;rounded=0;fontColor=#FF3333;fontSize=9;" parent="1" vertex="1">
          <mxGeometry x="1272.75" y="881.62" width="88" height="5" as="geometry" />
        </mxCell>
        <mxCell id="KD6KZySyhLGVUC2mEdNo-17" value="Dave" style="rounded=1;whiteSpace=wrap;html=1;fillColor=#f5f5f5;align=left;spacingLeft=5;strokeColor=#666666;fontColor=#333333;" parent="1" vertex="1">
          <mxGeometry x="1060.25" y="905.5" width="289.25" height="20" as="geometry" />
        </mxCell>
        <mxCell id="KD6KZySyhLGVUC2mEdNo-18" value="Remove" style="text;html=1;strokeColor=none;fillColor=none;align=center;verticalAlign=middle;whiteSpace=wrap;rounded=0;fontColor=#FF3333;fontSize=9;" parent="1" vertex="1">
          <mxGeometry x="1272.75" y="913" width="88" height="5" as="geometry" />
        </mxCell>
        <mxCell id="KD6KZySyhLGVUC2mEdNo-19" value="Gregg" style="rounded=1;whiteSpace=wrap;html=1;fillColor=#f5f5f5;align=left;spacingLeft=5;strokeColor=#666666;fontColor=#333333;" parent="1" vertex="1">
          <mxGeometry x="1060.25" y="935.5" width="289.25" height="20" as="geometry" />
        </mxCell>
        <mxCell id="KD6KZySyhLGVUC2mEdNo-20" value="Remove" style="text;html=1;strokeColor=none;fillColor=none;align=center;verticalAlign=middle;whiteSpace=wrap;rounded=0;fontColor=#FF3333;fontSize=9;" parent="1" vertex="1">
          <mxGeometry x="1272.75" y="943" width="88" height="5" as="geometry" />
        </mxCell>
        <mxCell id="KD6KZySyhLGVUC2mEdNo-25" value="Cousins" style="rounded=1;whiteSpace=wrap;html=1;fillColor=#E6E6E6;align=left;spacingLeft=5;strokeColor=#36393d;" parent="1" vertex="1">
          <mxGeometry x="1048.5" y="970.5" width="300" height="20" as="geometry" />
        </mxCell>
        <mxCell id="KD6KZySyhLGVUC2mEdNo-26" value="Add Member" style="text;html=1;strokeColor=none;fillColor=none;align=center;verticalAlign=middle;whiteSpace=wrap;rounded=0;fontColor=#00CC00;fontSize=9;" parent="1" vertex="1">
          <mxGeometry x="1271.5" y="978" width="88" height="5" as="geometry" />
        </mxCell>
        <mxCell id="KD6KZySyhLGVUC2mEdNo-34" value="Tony" style="rounded=1;whiteSpace=wrap;html=1;fillColor=#f5f5f5;align=left;spacingLeft=5;strokeColor=#666666;fontColor=#333333;" parent="1" vertex="1">
          <mxGeometry x="1060.25" y="999.5" width="289.25" height="20" as="geometry" />
        </mxCell>
        <mxCell id="KD6KZySyhLGVUC2mEdNo-35" value="Remove" style="text;html=1;strokeColor=none;fillColor=none;align=center;verticalAlign=middle;whiteSpace=wrap;rounded=0;fontColor=#FF3333;fontSize=9;" parent="1" vertex="1">
          <mxGeometry x="1272.75" y="1007" width="88" height="5" as="geometry" />
        </mxCell>
        <mxCell id="KD6KZySyhLGVUC2mEdNo-36" value="Gregg" style="rounded=1;whiteSpace=wrap;html=1;fillColor=#f5f5f5;align=left;spacingLeft=5;strokeColor=#666666;fontColor=#333333;" parent="1" vertex="1">
          <mxGeometry x="1060.25" y="1029.5" width="289.25" height="20" as="geometry" />
        </mxCell>
        <mxCell id="KD6KZySyhLGVUC2mEdNo-37" value="Remove" style="text;html=1;strokeColor=none;fillColor=none;align=center;verticalAlign=middle;whiteSpace=wrap;rounded=0;fontColor=#FF3333;fontSize=9;" parent="1" vertex="1">
          <mxGeometry x="1272.75" y="1037" width="88" height="5" as="geometry" />
        </mxCell>
        <mxCell id="KD6KZySyhLGVUC2mEdNo-38" value="Circles" style="rounded=1;whiteSpace=wrap;html=1;fillColor=#f5f5f5;align=center;spacingLeft=5;strokeColor=#666666;fontColor=#333333;" parent="1" vertex="1">
          <mxGeometry x="1192.5" y="771.5" width="74.75" height="20" as="geometry" />
        </mxCell>
        <mxCell id="KD6KZySyhLGVUC2mEdNo-39" value="Add friend" style="rounded=1;whiteSpace=wrap;html=1;fillColor=#cdeb8b;align=center;spacingLeft=5;strokeColor=#36393d;" parent="1" vertex="1">
          <mxGeometry x="1278.13" y="772.5" width="74.75" height="20" as="geometry" />
        </mxCell>
        <mxCell id="KD6KZySyhLGVUC2mEdNo-40" value="Friends" style="rounded=1;whiteSpace=wrap;html=1;fillColor=#f5f5f5;align=center;spacingLeft=5;strokeColor=#666666;fontColor=#333333;" parent="1" vertex="1">
          <mxGeometry x="1105.5" y="772.5" width="74.75" height="20" as="geometry" />
        </mxCell>
        <mxCell id="KD6KZySyhLGVUC2mEdNo-41" value="" style="rounded=0;whiteSpace=wrap;html=1;fillColor=#FFFFFF;" parent="1" vertex="1">
          <mxGeometry x="638.75" y="760" width="320" height="600" as="geometry" />
        </mxCell>
        <mxCell id="KD6KZySyhLGVUC2mEdNo-42" value="" style="shape=singleArrow;direction=west;whiteSpace=wrap;html=1;fillColor=#000000;" parent="1" vertex="1">
          <mxGeometry x="648.75" y="774" width="33.25" height="10" as="geometry" />
        </mxCell>
        <mxCell id="KD6KZySyhLGVUC2mEdNo-43" value="Circles" style="rounded=1;whiteSpace=wrap;html=1;fillColor=#f5f5f5;align=center;spacingLeft=5;strokeColor=#666666;fontColor=#333333;" parent="1" vertex="1">
          <mxGeometry x="784.5" y="769" width="74.75" height="20" as="geometry" />
        </mxCell>
        <mxCell id="KD6KZySyhLGVUC2mEdNo-44" value="Add friend" style="rounded=1;whiteSpace=wrap;html=1;fillColor=#cdeb8b;align=center;spacingLeft=5;strokeColor=#36393d;" parent="1" vertex="1">
          <mxGeometry x="870.1300000000001" y="770" width="74.75" height="20" as="geometry" />
        </mxCell>
        <mxCell id="KD6KZySyhLGVUC2mEdNo-45" value="Friends" style="rounded=1;whiteSpace=wrap;html=1;fillColor=#f5f5f5;align=center;spacingLeft=5;strokeColor=#666666;fontColor=#333333;" parent="1" vertex="1">
          <mxGeometry x="697.5" y="770" width="74.75" height="20" as="geometry" />
        </mxCell>
        <mxCell id="KD6KZySyhLGVUC2mEdNo-78" value="Ed Chow&amp;nbsp; &lt;font color=&quot;#808080&quot; style=&quot;font-size: 9px;&quot;&gt;23 followers&amp;nbsp; 18 follwing&lt;/font&gt;" style="text;html=1;strokeColor=none;fillColor=none;align=left;verticalAlign=middle;whiteSpace=wrap;rounded=0;labelBackgroundColor=none;labelBorderColor=none;fontColor=#000000;" parent="1" vertex="1">
          <mxGeometry x="657.6300000000001" y="983" width="193.5" height="30" as="geometry" />
        </mxCell>
        <mxCell id="KD6KZySyhLGVUC2mEdNo-79" value="Unfollow" style="rounded=0;whiteSpace=wrap;html=1;fillColor=#FF6666;fontSize=10;" parent="1" vertex="1">
          <mxGeometry x="871.1300000000001" y="988" width="69.5" height="25" as="geometry" />
        </mxCell>
        <mxCell id="KD6KZySyhLGVUC2mEdNo-80" value="Chris Dan&amp;nbsp; &lt;font color=&quot;#808080&quot; style=&quot;font-size: 9px;&quot;&gt;33 followers&amp;nbsp; 5 follwing&lt;/font&gt;" style="text;html=1;strokeColor=none;fillColor=none;align=left;verticalAlign=middle;whiteSpace=wrap;rounded=0;labelBackgroundColor=none;labelBorderColor=none;fontColor=#000000;" parent="1" vertex="1">
          <mxGeometry x="657.6300000000001" y="1023" width="193.5" height="30" as="geometry" />
        </mxCell>
        <mxCell id="KD6KZySyhLGVUC2mEdNo-81" value="Unfollow" style="rounded=0;whiteSpace=wrap;html=1;fillColor=#FF6666;fontSize=10;" parent="1" vertex="1">
          <mxGeometry x="871.1300000000001" y="1028" width="69.5" height="25" as="geometry" />
        </mxCell>
        <mxCell id="KD6KZySyhLGVUC2mEdNo-82" value="" style="text;html=1;strokeColor=none;fillColor=none;align=left;verticalAlign=middle;whiteSpace=wrap;rounded=0;labelBackgroundColor=none;labelBorderColor=none;fontColor=#000000;" parent="1" vertex="1">
          <mxGeometry x="657.6300000000001" y="1063" width="193.5" height="30" as="geometry" />
        </mxCell>
        <mxCell id="KD6KZySyhLGVUC2mEdNo-83" value="&lt;font color=&quot;#000000&quot; style=&quot;font-size: 12px;&quot;&gt;&lt;u&gt;&lt;b&gt;Following&lt;/b&gt;&lt;/u&gt;&lt;/font&gt;" style="text;html=1;strokeColor=none;fillColor=none;align=center;verticalAlign=middle;whiteSpace=wrap;rounded=0;labelBackgroundColor=default;fontSize=9;fontColor=#808080;" parent="1" vertex="1">
          <mxGeometry x="647.6300000000001" y="948" width="60" height="30" as="geometry" />
        </mxCell>
        <mxCell id="KD6KZySyhLGVUC2mEdNo-84" value="&lt;font color=&quot;#000000&quot;&gt;&lt;span style=&quot;font-size: 12px;&quot;&gt;&lt;b&gt;&lt;u&gt;Followers&lt;/u&gt;&lt;/b&gt;&lt;/span&gt;&lt;/font&gt;" style="text;html=1;strokeColor=none;fillColor=none;align=center;verticalAlign=middle;whiteSpace=wrap;rounded=0;labelBackgroundColor=default;fontSize=9;fontColor=#808080;" parent="1" vertex="1">
          <mxGeometry x="653.3800000000001" y="1074" width="60" height="30" as="geometry" />
        </mxCell>
        <mxCell id="KD6KZySyhLGVUC2mEdNo-85" value="Chris Dan&amp;nbsp; &lt;font color=&quot;#808080&quot; style=&quot;font-size: 9px;&quot;&gt;33 followers&amp;nbsp; 5 follwing&lt;/font&gt;" style="text;html=1;strokeColor=none;fillColor=none;align=left;verticalAlign=middle;whiteSpace=wrap;rounded=0;labelBackgroundColor=none;labelBorderColor=none;fontColor=#000000;" parent="1" vertex="1">
          <mxGeometry x="661.8800000000001" y="1114" width="193.5" height="30" as="geometry" />
        </mxCell>
        <mxCell id="KD6KZySyhLGVUC2mEdNo-86" value="Remove" style="rounded=0;whiteSpace=wrap;html=1;fillColor=#FF6666;fontSize=10;" parent="1" vertex="1">
          <mxGeometry x="875.3800000000001" y="1119" width="69.5" height="25" as="geometry" />
        </mxCell>
        <mxCell id="KD6KZySyhLGVUC2mEdNo-87" value="Pencha&amp;nbsp; &amp;nbsp;&lt;font color=&quot;#808080&quot; style=&quot;font-size: 9px;&quot;&gt;33 followers&amp;nbsp; 5 follwing&lt;/font&gt;" style="text;html=1;strokeColor=none;fillColor=none;align=left;verticalAlign=middle;whiteSpace=wrap;rounded=0;labelBackgroundColor=none;labelBorderColor=none;fontColor=#000000;" parent="1" vertex="1">
          <mxGeometry x="661.8800000000001" y="1154" width="193.5" height="30" as="geometry" />
        </mxCell>
        <mxCell id="KD6KZySyhLGVUC2mEdNo-88" value="Remove" style="rounded=0;whiteSpace=wrap;html=1;fillColor=#FF6666;fontSize=10;" parent="1" vertex="1">
          <mxGeometry x="875.3800000000001" y="1159" width="69.5" height="21" as="geometry" />
        </mxCell>
        <mxCell id="KD6KZySyhLGVUC2mEdNo-89" value="&lt;font color=&quot;#000000&quot; style=&quot;font-size: 12px;&quot;&gt;&lt;u&gt;&lt;b&gt;Requests&lt;/b&gt;&lt;/u&gt;&lt;/font&gt;" style="text;html=1;strokeColor=none;fillColor=none;align=center;verticalAlign=middle;whiteSpace=wrap;rounded=0;labelBackgroundColor=default;fontSize=9;fontColor=#808080;" parent="1" vertex="1">
          <mxGeometry x="649.6300000000001" y="853" width="60" height="30" as="geometry" />
        </mxCell>
        <mxCell id="KD6KZySyhLGVUC2mEdNo-90" value="Pencha&amp;nbsp;&amp;nbsp;&lt;font color=&quot;#808080&quot; style=&quot;font-size: 9px;&quot;&gt;23 followers&amp;nbsp; 18 follwing&lt;/font&gt;" style="text;html=1;strokeColor=none;fillColor=none;align=left;verticalAlign=middle;whiteSpace=wrap;rounded=0;labelBackgroundColor=none;labelBorderColor=none;fontColor=#000000;" parent="1" vertex="1">
          <mxGeometry x="654.3800000000001" y="883" width="193.5" height="30" as="geometry" />
        </mxCell>
        <mxCell id="KD6KZySyhLGVUC2mEdNo-91" value="" style="rounded=0;whiteSpace=wrap;html=1;fillColor=#FF6666;fontSize=10;" parent="1" vertex="1">
          <mxGeometry x="907.3800000000001" y="883" width="34.25" height="25" as="geometry" />
        </mxCell>
        <mxCell id="KD6KZySyhLGVUC2mEdNo-92" value="" style="rounded=0;whiteSpace=wrap;html=1;fillColor=#cdeb8b;fontSize=10;strokeColor=#36393d;" parent="1" vertex="1">
          <mxGeometry x="847.8800000000001" y="883" width="34.25" height="25" as="geometry" />
        </mxCell>
        <mxCell id="KD6KZySyhLGVUC2mEdNo-93" value="" style="shape=cross;whiteSpace=wrap;html=1;rounded=0;labelBackgroundColor=default;fontSize=12;fontColor=#000000;strokeColor=none;fillColor=#000000;gradientColor=none;rotation=40;" parent="1" vertex="1">
          <mxGeometry x="912" y="885.5" width="23" height="20" as="geometry" />
        </mxCell>
        <mxCell id="KD6KZySyhLGVUC2mEdNo-94" value="" style="shape=image;html=1;verticalAlign=top;verticalLabelPosition=bottom;labelBackgroundColor=#ffffff;imageAspect=0;aspect=fixed;image=https://cdn1.iconfinder.com/data/icons/material-core/18/check-128.png;rounded=0;fontSize=12;fontColor=#000000;strokeColor=#CCCCCC;fillColor=#000000;gradientColor=none;" parent="1" vertex="1">
          <mxGeometry x="855.3800000000001" y="886.5" width="18" height="18" as="geometry" />
        </mxCell>
        <mxCell id="KD6KZySyhLGVUC2mEdNo-95" value="Add Circle" style="text;html=1;strokeColor=none;fillColor=none;align=center;verticalAlign=middle;whiteSpace=wrap;rounded=0;fontColor=#00CC00;fontSize=9;" parent="1" vertex="1">
          <mxGeometry x="888.25" y="833" width="88" height="5" as="geometry" />
        </mxCell>
        <mxCell id="KD6KZySyhLGVUC2mEdNo-96" value="" style="endArrow=none;html=1;rounded=0;fontSize=9;fontColor=#00CC00;" parent="1" edge="1">
          <mxGeometry width="50" height="50" relative="1" as="geometry">
            <mxPoint x="638.75" y="843" as="sourcePoint" />
            <mxPoint x="958.75" y="843" as="targetPoint" />
          </mxGeometry>
        </mxCell>
        <mxCell id="KD6KZySyhLGVUC2mEdNo-97" value="&lt;font color=&quot;#000000&quot; style=&quot;font-size: 13px;&quot;&gt;Friends&lt;/font&gt;" style="text;html=1;strokeColor=none;fillColor=none;align=center;verticalAlign=middle;whiteSpace=wrap;rounded=0;fontSize=9;fontColor=#00CC00;" parent="1" vertex="1">
          <mxGeometry x="642.6300000000001" y="813" width="60" height="30" as="geometry" />
        </mxCell>
        <mxCell id="KD6KZySyhLGVUC2mEdNo-146" value="" style="rounded=0;whiteSpace=wrap;html=1;fillColor=#FFFFFF;" parent="1" vertex="1">
          <mxGeometry x="1430" y="759" width="320" height="600" as="geometry" />
        </mxCell>
        <mxCell id="KD6KZySyhLGVUC2mEdNo-147" value="" style="shape=singleArrow;direction=west;whiteSpace=wrap;html=1;fillColor=#000000;" parent="1" vertex="1">
          <mxGeometry x="1440" y="773" width="33.25" height="10" as="geometry" />
        </mxCell>
        <mxCell id="KD6KZySyhLGVUC2mEdNo-148" value="Circles" style="rounded=1;whiteSpace=wrap;html=1;fillColor=#f5f5f5;align=center;spacingLeft=5;strokeColor=#666666;fontColor=#333333;" parent="1" vertex="1">
          <mxGeometry x="1575.75" y="768" width="74.75" height="20" as="geometry" />
        </mxCell>
        <mxCell id="KD6KZySyhLGVUC2mEdNo-149" value="Add friend" style="rounded=1;whiteSpace=wrap;html=1;fillColor=#cdeb8b;align=center;spacingLeft=5;strokeColor=#36393d;" parent="1" vertex="1">
          <mxGeometry x="1661.38" y="769" width="74.75" height="20" as="geometry" />
        </mxCell>
        <mxCell id="KD6KZySyhLGVUC2mEdNo-150" value="Friends" style="rounded=1;whiteSpace=wrap;html=1;fillColor=#f5f5f5;align=center;spacingLeft=5;strokeColor=#666666;fontColor=#333333;" parent="1" vertex="1">
          <mxGeometry x="1488.75" y="769" width="74.75" height="20" as="geometry" />
        </mxCell>
        <mxCell id="KD6KZySyhLGVUC2mEdNo-151" value="Ed Chow&amp;nbsp; &lt;font color=&quot;#808080&quot; style=&quot;font-size: 9px;&quot;&gt;23 followers&amp;nbsp; 18 follwing&lt;/font&gt;" style="text;html=1;strokeColor=none;fillColor=none;align=left;verticalAlign=middle;whiteSpace=wrap;rounded=0;labelBackgroundColor=none;labelBorderColor=none;fontColor=#000000;" parent="1" vertex="1">
          <mxGeometry x="1448.5" y="864.5" width="193.5" height="30" as="geometry" />
        </mxCell>
        <mxCell id="KD6KZySyhLGVUC2mEdNo-152" value="Unfollow" style="rounded=0;whiteSpace=wrap;html=1;fillColor=#FF6666;fontSize=10;" parent="1" vertex="1">
          <mxGeometry x="1662" y="869.5" width="69.5" height="25" as="geometry" />
        </mxCell>
        <mxCell id="KD6KZySyhLGVUC2mEdNo-174" value="Ed" style="strokeWidth=1;shadow=0;dashed=0;align=center;html=1;shape=mxgraph.mockup.forms.searchBox;strokeColor=#999999;mainText=;strokeColor2=#008cff;fontColor=#666666;fontSize=17;align=left;spacingLeft=3;rounded=1;fillColor=default;" parent="1" vertex="1">
          <mxGeometry x="1436.13" y="824.5" width="300" height="30" as="geometry" />
        </mxCell>
        <mxCell id="KD6KZySyhLGVUC2mEdNo-175" value="Ed Dan&amp;nbsp;&amp;nbsp;&lt;font color=&quot;#808080&quot; style=&quot;font-size: 9px;&quot;&gt;23 followers&amp;nbsp; 18 follwing&lt;/font&gt;" style="text;html=1;strokeColor=none;fillColor=none;align=left;verticalAlign=middle;whiteSpace=wrap;rounded=0;labelBackgroundColor=none;labelBorderColor=none;fontColor=#000000;" parent="1" vertex="1">
          <mxGeometry x="1448.5" y="903.5" width="193.5" height="30" as="geometry" />
        </mxCell>
        <mxCell id="KD6KZySyhLGVUC2mEdNo-176" value="Request" style="rounded=0;whiteSpace=wrap;html=1;fillColor=#cdeb8b;fontSize=10;strokeColor=#36393d;" parent="1" vertex="1">
          <mxGeometry x="1662" y="908.5" width="69.5" height="25" as="geometry" />
        </mxCell>
        <mxCell id="KD6KZySyhLGVUC2mEdNo-177" value="" style="rounded=0;whiteSpace=wrap;html=1;spacingTop=0;strokeColor=#000000;" parent="1" vertex="1">
          <mxGeometry x="249.5" y="1019.5" width="300" height="280" as="geometry" />
        </mxCell>
        <mxCell id="KD6KZySyhLGVUC2mEdNo-178" value="&lt;b&gt;&amp;nbsp;&lt;/b&gt;&lt;b&gt;&amp;nbsp;Gym&lt;/b&gt;" style="text;html=1;strokeColor=none;fillColor=none;align=left;verticalAlign=middle;whiteSpace=wrap;rounded=0;" parent="1" vertex="1">
          <mxGeometry x="251.5" y="1023.5" width="150" height="30" as="geometry" />
        </mxCell>
        <mxCell id="KD6KZySyhLGVUC2mEdNo-179" value="Organisor: Jeff D" style="text;whiteSpace=wrap;html=1;" parent="1" vertex="1">
          <mxGeometry x="448.5" y="1023.5" width="110" height="40" as="geometry" />
        </mxCell>
        <mxCell id="KD6KZySyhLGVUC2mEdNo-180" value="&lt;b&gt;15:00 to 16:00&lt;/b&gt;" style="rounded=1;whiteSpace=wrap;html=1;strokeColor=#CCCCCC;" parent="1" vertex="1">
          <mxGeometry x="258.5" y="1057.5" width="281" height="26" as="geometry" />
        </mxCell>
        <mxCell id="KD6KZySyhLGVUC2mEdNo-181" value="&lt;font style=&quot;font-size: 12px;&quot;&gt;The GYM - Stetchford Retail Park&lt;/font&gt;" style="rounded=1;whiteSpace=wrap;html=1;strokeColor=#CCCCCC;align=left;spacingLeft=9;" parent="1" vertex="1">
          <mxGeometry x="258.5" y="1093.5" width="281" height="36" as="geometry" />
        </mxCell>
        <mxCell id="KD6KZySyhLGVUC2mEdNo-182" value="LEAVE" style="rounded=1;whiteSpace=wrap;html=1;fontSize=12;strokeColor=#4D4D4D;fillColor=#FF6666;gradientColor=none;" parent="1" vertex="1">
          <mxGeometry x="469.25" y="1264.5" width="73" height="29" as="geometry" />
        </mxCell>
        <mxCell id="KD6KZySyhLGVUC2mEdNo-183" value="You" style="rounded=1;whiteSpace=wrap;html=1;strokeColor=#36393d;align=center;spacingLeft=0;fontSize=10;fillColor=#cdeb8b;" parent="1" vertex="1">
          <mxGeometry x="260.5" y="1149.5" width="60.5" height="25" as="geometry" />
        </mxCell>
        <mxCell id="KD6KZySyhLGVUC2mEdNo-184" value="Cris path" style="rounded=1;whiteSpace=wrap;html=1;strokeColor=#CCCCCC;align=center;spacingLeft=0;fontSize=10;" parent="1" vertex="1">
          <mxGeometry x="330.5" y="1149.5" width="60.5" height="25" as="geometry" />
        </mxCell>
        <mxCell id="KD6KZySyhLGVUC2mEdNo-185" value="Hank" style="rounded=1;whiteSpace=wrap;html=1;strokeColor=#CCCCCC;align=center;spacingLeft=0;fontSize=10;" parent="1" vertex="1">
          <mxGeometry x="407" y="1149.5" width="60.5" height="25" as="geometry" />
        </mxCell>
        <mxCell id="KD6KZySyhLGVUC2mEdNo-186" value="panko" style="rounded=1;whiteSpace=wrap;html=1;strokeColor=#CCCCCC;align=center;spacingLeft=0;fontSize=10;" parent="1" vertex="1">
          <mxGeometry x="479.75" y="1149.5" width="60.5" height="25" as="geometry" />
        </mxCell>
        <mxCell id="KD6KZySyhLGVUC2mEdNo-187" value="Pete D" style="rounded=1;whiteSpace=wrap;html=1;strokeColor=#CCCCCC;align=center;spacingLeft=0;fontSize=10;" parent="1" vertex="1">
          <mxGeometry x="260.75" y="1184" width="60.5" height="25" as="geometry" />
        </mxCell>
        <mxCell id="KD6KZySyhLGVUC2mEdNo-188" value="Clock s" style="rounded=1;whiteSpace=wrap;html=1;strokeColor=#CCCCCC;align=center;spacingLeft=0;fontSize=10;" parent="1" vertex="1">
          <mxGeometry x="330.75" y="1184" width="60.5" height="25" as="geometry" />
        </mxCell>
        <mxCell id="KD6KZySyhLGVUC2mEdNo-189" value="Tom" style="rounded=1;whiteSpace=wrap;html=1;strokeColor=#CCCCCC;align=center;spacingLeft=0;fontSize=10;" parent="1" vertex="1">
          <mxGeometry x="407.25" y="1184" width="60.5" height="25" as="geometry" />
        </mxCell>
        <mxCell id="KD6KZySyhLGVUC2mEdNo-190" value="Jon ed" style="rounded=1;whiteSpace=wrap;html=1;strokeColor=#CCCCCC;align=center;spacingLeft=0;fontSize=10;" parent="1" vertex="1">
          <mxGeometry x="257.75" y="1224" width="60.5" height="25" as="geometry" />
        </mxCell>
        <mxCell id="KD6KZySyhLGVUC2mEdNo-191" value="Peasd" style="rounded=1;whiteSpace=wrap;html=1;strokeColor=#CCCCCC;align=center;spacingLeft=0;fontSize=10;" parent="1" vertex="1">
          <mxGeometry x="327.75" y="1224" width="60.5" height="25" as="geometry" />
        </mxCell>
        <mxCell id="KD6KZySyhLGVUC2mEdNo-192" value="Dave" style="rounded=1;whiteSpace=wrap;html=1;strokeColor=#CCCCCC;align=center;spacingLeft=0;fontSize=10;" parent="1" vertex="1">
          <mxGeometry x="404.25" y="1224" width="60.5" height="25" as="geometry" />
        </mxCell>
        <mxCell id="KD6KZySyhLGVUC2mEdNo-193" value="Peasd" style="rounded=1;whiteSpace=wrap;html=1;strokeColor=#CCCCCC;align=center;spacingLeft=0;fontSize=10;" parent="1" vertex="1">
          <mxGeometry x="479.75" y="1184" width="60.5" height="25" as="geometry" />
        </mxCell>
        <mxCell id="KD6KZySyhLGVUC2mEdNo-195" value="Profile" style="rounded=1;whiteSpace=wrap;html=1;fillColor=#f5f5f5;align=center;spacingLeft=5;strokeColor=#666666;fontColor=#333333;fontSize=10;" parent="1" vertex="1">
          <mxGeometry x="324.75" y="86" width="85.13" height="20" as="geometry" />
        </mxCell>
        <mxCell id="KD6KZySyhLGVUC2mEdNo-196" value="New event" style="rounded=1;whiteSpace=wrap;html=1;fillColor=#cdeb8b;align=center;spacingLeft=5;strokeColor=#36393d;fontSize=10;" parent="1" vertex="1">
          <mxGeometry x="247.13" y="86" width="72.87" height="20" as="geometry" />
        </mxCell>
        <mxCell id="KD6KZySyhLGVUC2mEdNo-197" value="Notifications" style="rounded=1;whiteSpace=wrap;html=1;fillColor=#f5f5f5;align=left;spacingLeft=5;strokeColor=#666666;fontColor=#333333;fontSize=10;" parent="1" vertex="1">
          <mxGeometry x="418" y="86" width="80" height="20" as="geometry" />
        </mxCell>
        <mxCell id="KD6KZySyhLGVUC2mEdNo-199" value="" style="ellipse;whiteSpace=wrap;html=1;aspect=fixed;fillColor=#FF3333;strokeColor=none;" parent="1" vertex="1">
          <mxGeometry x="482.75" y="90.25" width="11.5" height="11.5" as="geometry" />
        </mxCell>
        <mxCell id="KD6KZySyhLGVUC2mEdNo-200" value="&lt;font style=&quot;font-size: 8px;&quot;&gt;3&lt;/font&gt;" style="text;html=1;align=center;verticalAlign=middle;resizable=0;points=[];autosize=1;strokeColor=none;fillColor=none;fontSize=12;" parent="1" vertex="1">
          <mxGeometry x="472.5" y="80" width="30" height="30" as="geometry" />
        </mxCell>
        <mxCell id="KD6KZySyhLGVUC2mEdNo-201" value="Friends" style="rounded=1;whiteSpace=wrap;html=1;fillColor=#f5f5f5;align=left;spacingLeft=5;strokeColor=#666666;fontColor=#333333;fontSize=10;" parent="1" vertex="1">
          <mxGeometry x="504.63" y="86" width="47.37" height="20" as="geometry" />
        </mxCell>
        <mxCell id="KD6KZySyhLGVUC2mEdNo-202" value="Settings" style="rounded=1;whiteSpace=wrap;html=1;fillColor=#f5f5f5;align=center;spacingLeft=5;strokeColor=#666666;fontColor=#333333;fontSize=10;" parent="1" vertex="1">
          <mxGeometry x="463.37" y="765" width="85.13" height="20" as="geometry" />
        </mxCell>
        <mxCell id="KD6KZySyhLGVUC2mEdNo-203" value="Friends" style="rounded=1;whiteSpace=wrap;html=1;fillColor=#f5f5f5;align=center;spacingLeft=5;strokeColor=#666666;fontColor=#333333;fontSize=10;" parent="1" vertex="1">
          <mxGeometry x="385.75" y="765" width="72.87" height="20" as="geometry" />
        </mxCell>
        <mxCell id="KD6KZySyhLGVUC2mEdNo-204" value="Drew&amp;nbsp;&amp;nbsp;&lt;font color=&quot;#808080&quot; style=&quot;font-size: 9px;&quot;&gt;23 followers&amp;nbsp; 18 follwing&lt;/font&gt;" style="text;html=1;strokeColor=none;fillColor=none;align=left;verticalAlign=middle;whiteSpace=wrap;rounded=0;labelBackgroundColor=none;labelBorderColor=none;fontColor=#000000;" parent="1" vertex="1">
          <mxGeometry x="653.3800000000001" y="918" width="193.5" height="30" as="geometry" />
        </mxCell>
        <mxCell id="KD6KZySyhLGVUC2mEdNo-205" value="Cancel" style="rounded=0;whiteSpace=wrap;html=1;fillColor=#FF6666;fontSize=10;" parent="1" vertex="1">
          <mxGeometry x="850" y="918" width="90.63" height="25" as="geometry" />
        </mxCell>
      </root>
    </mxGraphModel>
  </diagram>
  <diagram id="LB-X0yUY8Rr0qqNAWDyC" name="Release 2">
    <mxGraphModel dx="1422" dy="808" grid="1" gridSize="10" guides="1" tooltips="1" connect="1" arrows="1" fold="1" page="1" pageScale="1" pageWidth="850" pageHeight="1100" math="0" shadow="0">
      <root>
        <mxCell id="0" />
        <mxCell id="1" parent="0" />
        <mxCell id="FEhC-wT6v1ijM_iuJ92q-1" value="" style="rounded=0;whiteSpace=wrap;html=1;" parent="1" vertex="1">
          <mxGeometry x="240" y="80" width="320" height="560" as="geometry" />
        </mxCell>
        <mxCell id="FEhC-wT6v1ijM_iuJ92q-2" value="" style="rounded=0;whiteSpace=wrap;html=1;spacingTop=0;strokeColor=#000000;" parent="1" vertex="1">
          <mxGeometry x="250" y="90" width="300" height="330" as="geometry" />
        </mxCell>
        <mxCell id="FEhC-wT6v1ijM_iuJ92q-3" value="&lt;b&gt;&amp;nbsp;&lt;/b&gt;&lt;b&gt;&amp;nbsp;Gym&lt;/b&gt;" style="text;html=1;strokeColor=none;fillColor=none;align=left;verticalAlign=middle;whiteSpace=wrap;rounded=0;" parent="1" vertex="1">
          <mxGeometry x="252" y="94" width="150" height="30" as="geometry" />
        </mxCell>
        <mxCell id="FEhC-wT6v1ijM_iuJ92q-4" value="&lt;font color=&quot;#808080&quot;&gt;&lt;b style=&quot;font-family: Helvetica; font-size: 12px; font-style: normal; font-variant-ligatures: normal; font-variant-caps: normal; letter-spacing: normal; orphans: 2; text-align: left; text-indent: 0px; text-transform: none; widows: 2; word-spacing: 0px; -webkit-text-stroke-width: 0px; background-color: rgb(248, 249, 250); text-decoration-thickness: initial; text-decoration-style: initial; text-decoration-color: initial;&quot;&gt;Today :&amp;nbsp;&lt;/b&gt;&lt;span style=&quot;font-family: Helvetica; font-size: 12px; font-style: normal; font-variant-ligatures: normal; font-variant-caps: normal; font-weight: 400; letter-spacing: normal; orphans: 2; text-align: left; text-indent: 0px; text-transform: none; widows: 2; word-spacing: 0px; -webkit-text-stroke-width: 0px; background-color: rgb(248, 249, 250); text-decoration-thickness: initial; text-decoration-style: initial; text-decoration-color: initial; float: none; display: inline !important;&quot;&gt;17:00-19:00&lt;/span&gt;&lt;/font&gt;" style="text;whiteSpace=wrap;html=1;" parent="1" vertex="1">
          <mxGeometry x="259" y="124" width="140" height="35" as="geometry" />
        </mxCell>
        <mxCell id="FEhC-wT6v1ijM_iuJ92q-5" value="Organisor: Jeff D" style="text;whiteSpace=wrap;html=1;" parent="1" vertex="1">
          <mxGeometry x="449" y="94" width="110" height="40" as="geometry" />
        </mxCell>
        <mxCell id="FEhC-wT6v1ijM_iuJ92q-6" value="Whose going" style="text;html=1;strokeColor=none;fillColor=none;align=center;verticalAlign=middle;whiteSpace=wrap;rounded=0;labelBorderColor=none;fontColor=#000000;labelBackgroundColor=none;" parent="1" vertex="1">
          <mxGeometry x="253" y="222" width="90" height="30" as="geometry" />
        </mxCell>
        <mxCell id="FEhC-wT6v1ijM_iuJ92q-7" value="" style="endArrow=none;html=1;rounded=0;fontColor=#000000;" parent="1" edge="1">
          <mxGeometry width="50" height="50" relative="1" as="geometry">
            <mxPoint x="331" y="249" as="sourcePoint" />
            <mxPoint x="261" y="249" as="targetPoint" />
          </mxGeometry>
        </mxCell>
        <mxCell id="FEhC-wT6v1ijM_iuJ92q-8" value="Jeff D" style="text;html=1;strokeColor=none;fillColor=none;align=left;verticalAlign=middle;whiteSpace=wrap;rounded=0;labelBackgroundColor=none;labelBorderColor=none;fontColor=#000000;" parent="1" vertex="1">
          <mxGeometry x="284.5" y="265" width="162.5" height="30" as="geometry" />
        </mxCell>
        <mxCell id="FEhC-wT6v1ijM_iuJ92q-9" value="" style="ellipse;whiteSpace=wrap;html=1;aspect=fixed;labelBackgroundColor=none;labelBorderColor=none;fontColor=#000000;" parent="1" vertex="1">
          <mxGeometry x="252" y="265" width="30" height="30" as="geometry" />
        </mxCell>
        <mxCell id="FEhC-wT6v1ijM_iuJ92q-10" value="100%" style="text;html=1;strokeColor=none;fillColor=none;align=left;verticalAlign=middle;whiteSpace=wrap;rounded=0;labelBackgroundColor=none;labelBorderColor=none;fontColor=#000000;" parent="1" vertex="1">
          <mxGeometry x="497" y="265" width="43" height="30" as="geometry" />
        </mxCell>
        <mxCell id="FEhC-wT6v1ijM_iuJ92q-11" value="&amp;nbsp;Dave Ed" style="text;html=1;strokeColor=none;fillColor=none;align=left;verticalAlign=middle;whiteSpace=wrap;rounded=0;labelBackgroundColor=none;labelBorderColor=none;fontColor=#000000;" parent="1" vertex="1">
          <mxGeometry x="284.5" y="305" width="162.5" height="30" as="geometry" />
        </mxCell>
        <mxCell id="FEhC-wT6v1ijM_iuJ92q-12" value="" style="ellipse;whiteSpace=wrap;html=1;aspect=fixed;labelBackgroundColor=none;labelBorderColor=none;fontColor=#000000;" parent="1" vertex="1">
          <mxGeometry x="252" y="305" width="30" height="30" as="geometry" />
        </mxCell>
        <mxCell id="FEhC-wT6v1ijM_iuJ92q-13" value="100%" style="text;html=1;strokeColor=none;fillColor=none;align=left;verticalAlign=middle;whiteSpace=wrap;rounded=0;labelBackgroundColor=none;labelBorderColor=none;fontColor=#000000;" parent="1" vertex="1">
          <mxGeometry x="497" y="305" width="43" height="30" as="geometry" />
        </mxCell>
        <mxCell id="FEhC-wT6v1ijM_iuJ92q-14" value="Chris Doe" style="text;html=1;strokeColor=none;fillColor=none;align=left;verticalAlign=middle;whiteSpace=wrap;rounded=0;labelBackgroundColor=none;labelBorderColor=none;fontColor=#000000;" parent="1" vertex="1">
          <mxGeometry x="285.5" y="345" width="162.5" height="30" as="geometry" />
        </mxCell>
        <mxCell id="FEhC-wT6v1ijM_iuJ92q-15" value="" style="ellipse;whiteSpace=wrap;html=1;aspect=fixed;labelBackgroundColor=none;labelBorderColor=none;fontColor=#000000;" parent="1" vertex="1">
          <mxGeometry x="253" y="345" width="30" height="30" as="geometry" />
        </mxCell>
        <mxCell id="FEhC-wT6v1ijM_iuJ92q-16" value="80%" style="text;html=1;strokeColor=none;fillColor=none;align=left;verticalAlign=middle;whiteSpace=wrap;rounded=0;labelBackgroundColor=none;labelBorderColor=none;fontColor=#000000;" parent="1" vertex="1">
          <mxGeometry x="498" y="345" width="43" height="30" as="geometry" />
        </mxCell>
        <mxCell id="FEhC-wT6v1ijM_iuJ92q-17" value="&lt;font color=&quot;#808080&quot;&gt;&lt;b&gt;.... 3 more people&lt;/b&gt;&lt;/font&gt;" style="text;whiteSpace=wrap;html=1;" parent="1" vertex="1">
          <mxGeometry x="253" y="385" width="140" height="35" as="geometry" />
        </mxCell>
        <mxCell id="FEhC-wT6v1ijM_iuJ92q-18" value="&lt;font style=&quot;font-size: 9px;&quot;&gt;&lt;span style=&quot;color: rgb(0, 0, 0); font-family: Helvetica; font-style: normal; font-variant-ligatures: normal; font-variant-caps: normal; font-weight: 400; letter-spacing: normal; orphans: 2; text-align: left; text-indent: 0px; text-transform: none; widows: 2; word-spacing: 0px; -webkit-text-stroke-width: 0px; background-color: rgb(248, 249, 250); text-decoration-thickness: initial; text-decoration-style: initial; text-decoration-color: initial; float: none; display: inline !important;&quot;&gt;23 Stechford Road&amp;nbsp;&lt;/span&gt;&lt;span style=&quot;color: rgb(0, 0, 0); font-family: Helvetica; font-style: normal; font-variant-ligatures: normal; font-variant-caps: normal; font-weight: 400; letter-spacing: normal; orphans: 2; text-align: left; text-indent: 0px; text-transform: none; widows: 2; word-spacing: 0px; -webkit-text-stroke-width: 0px; background-color: rgb(248, 249, 250); text-decoration-thickness: initial; text-decoration-style: initial; text-decoration-color: initial; float: none; display: inline !important;&quot;&gt;Birmingham&lt;/span&gt;&lt;/font&gt;" style="text;whiteSpace=wrap;html=1;fontSize=8;fontColor=#00FF00;" parent="1" vertex="1">
          <mxGeometry x="259" y="191" width="171" height="31" as="geometry" />
        </mxCell>
        <mxCell id="FEhC-wT6v1ijM_iuJ92q-19" value="&lt;font color=&quot;#000000&quot;&gt;&lt;span style=&quot;font-size: 12px;&quot;&gt;The Gym Stechford&lt;/span&gt;&lt;/font&gt;" style="text;whiteSpace=wrap;html=1;fontSize=8;fontColor=#00FF00;" parent="1" vertex="1">
          <mxGeometry x="259" y="170" width="171" height="31" as="geometry" />
        </mxCell>
        <mxCell id="FEhC-wT6v1ijM_iuJ92q-20" value="&lt;font color=&quot;#000000&quot;&gt;&lt;span style=&quot;font-size: 12px;&quot;&gt;30 Mins Away&amp;nbsp;&lt;/span&gt;&lt;/font&gt;" style="text;whiteSpace=wrap;html=1;fontSize=8;fontColor=#00FF00;align=right;spacingRight=6;" parent="1" vertex="1">
          <mxGeometry x="379" y="169" width="171" height="31" as="geometry" />
        </mxCell>
        <mxCell id="FEhC-wT6v1ijM_iuJ92q-21" value="" style="endArrow=none;html=1;rounded=0;strokeColor=#949494;" parent="1" edge="1">
          <mxGeometry width="50" height="50" relative="1" as="geometry">
            <mxPoint x="257" y="167" as="sourcePoint" />
            <mxPoint x="537" y="166" as="targetPoint" />
          </mxGeometry>
        </mxCell>
      </root>
    </mxGraphModel>
  </diagram>
  <diagram id="AmjFdfXUb8XlE_0ea_7k" name="Branding">
    <mxGraphModel dx="2523" dy="2051" grid="1" gridSize="10" guides="1" tooltips="1" connect="1" arrows="1" fold="1" page="1" pageScale="1" pageWidth="850" pageHeight="1100" math="0" shadow="0">
      <root>
        <mxCell id="0" />
        <mxCell id="1" parent="0" />
        <mxCell id="jhKxUfRjbZbRY1bmtEvc-1" value="" style="shape=image;imageAspect=0;aspect=fixed;verticalLabelPosition=bottom;verticalAlign=top;image=data:image/png,iVBORw0KGgoAAAANSUhEUgAAAjsAAAIsCAIAAACbZ/8vAAAACXBIWXMAAA7EAAAOxAGVKw4bAAAgAElEQVR4nOzde3gU1f0/8M/M7M7mshty2ZAoIUpSL0EJkQoRKIg2EVuoCt6gYEHtT9C2oAKlFQVBbUXEgm1B+xVLNYhXhIoXTCoIAgJSQ6AEDRsQEmBJsoHN5rKzOzO/PxaWkOxOLjub5CTv19OnT8jOzpxN4r73nPmcc7iGhgYCAADo8vjObgAAAECrILEAAIANSCwAAGADEgsAANiAxAIAADYgsQAAgA1ILAAAYAMSCwAA2IDEAgAANiCxAACADUgsAABgAxILAADYgMQCAAA2ILEAAIANSCwAAGADEgsAANiAxAIAADYYdDyXqqo6ng0AoPvhOK6zm8AwHRLLH1S+L1RVRXQBADTGcVyTrGpHdDV5sw03fwu7TsqGlFiNI0pRFP8XTQ4AAOiZGr/X8zzvyy3fF80PCKbxO22HhVbjFvrjttOjq/2J5f/xybKsXMz/Y+30lwcA0In874S+oGpMEIQWY8D39Mb9Af+7a8ckVuOI9X2h3eBwa2di+X98six7vV5Zlr379ssffaIcOeq1lapnzurbSgAApnGxvQzpaXxaP2HszwwDBwiCoKqqIAgaGeDvFfjeaXmeF0VREAT/s8LNd11Zlj0ejyzLgiBQoyTrgAY0xzU0NLT1OU3iSqpxef/xuvuNNdRoPBAAAALgedOUScK0B03R0QaDwRc/ze9y+d9mfYxGY1RUVGc1mYjq6uokSfK1NmCDO0Y7E0tRFK/X6/F4pIPF7j/Ol4/8EI7GAQB0S4arrhQXzjNd099gMBgMhsZ3tnz8N1xUVY2KijIY9Kzrbh+v11tXV8dxnD9lO74Nbe5a+u9d+RJL3lSAuAIAaBPvd9/LmwokSfLdVWlSYu2/ZSXLsi/SOrGpfr6W+AsXOqWwrj2DoReGBL/d516dp3ubAAC6PffqPG/xd/6OVJNHfXFFRJGRkZ3RusAiIyN9DeusOvD29LH8d7DUz/IJ9esAAO2gqur6j5p3WRoXXJhMpi5Vcc1xXEREhL9kseNzq22JpTYiy7LyfUmYmgUA0O0pR3/weDz+uGocWr4Y6yLjgY0JgsDSqCDHcf5bgnLp0TA0CQCgR1COHPXfsmr8fX8fqwsmlsFgaDwtrIO1c1Tw3FCmyxWONgEA9ARKlcN/HytgaHWpIUEfnuc7K66ofYlFWDwQAEAPjW+1+L/T5IuuphNb2M6J00gsAIDQBXwv7fpvsMyMClIXTn4AABbhTbWV2tnH8tVf6NsUAICepmverOqysAcxAACwAYkFAABsQGIBAAAbkFgAAMAGJBYAALABiQUAAGzocotWAQCALlwu1/79+3fu3Gm32202W21tbVJSUlpaWnp6elpa2tChQzu7gW2GxAIA6G5cLteGDRs+/PDD2traxt+32+12u33nzp1ElJmZ+dBDD6Wnp3dSG9sDiQUA0K3YbLa5c+f6syonJ8fXtTKbzURUVFRkt9sLCgqKiop++9vfTp48edKkSZ3a3jZAYgEAdB/5+fkvvfSS7+vbb7998uTJvqDyy8zMJKLJkycvXbp0//79eXl5NTU106dP74S2th0qLwAAugl/XPXu3Xvx4sW+HFq/fv369etdF28OlZSU9MILLzz00ENEtGHDhqKiok5pcFshsQAAugO73e6LqwEDBvzrX//y9aXy8/NfPc93mM1mW7Nmjc1mI6Jx48bl5OQQUV5eXuc1vA2QWAAA3cErr7xCRFFRUfPnz/d/0z8kGB0d7fti0aJFeXl5c+fO9f1z8uTJRLR///4ObWt7IbEAAJhXVFT09ddfE9GCBQvMZrOvvIKIhg4dOmnSJN8NLd+RvuHB2tpa3xdJSUm+7/t6XV0cKi8AAJj34YcfElFOTk5mZubSpUsLCgqIaPXq1UlJSf6s8pk+fXp+fn5ubm6TigwmILEAAJhXWlpKRGlpadSot2S32/1dKL/c3Nzc3Fz/P/01F0xMzMKoIAAA806fPk3nU2fcuHG9e/e+4YYbfMUX2nx3v2644YZwt1AX6GMBALDN36nyRVSTXpSGpUuXHjlyhIgwHwsAADpCk6WYWsl/u+vxxx9vPnjYNSGxAADY5q9c93W28vPzf/Ob3/hXvgiocVy1skPWFSCxAADY5i+a8NVf5OXllZaW5ufnB1vJwuVy+eLqoYceYiiuCIkFANANDBgwgM73sXwVg9RorlUT/rr2/fv3szJ32AeJBQDAPN9mVwUFBXa7fdasWU899ZRvMpbL5Vq/fv2aNWuarCv4+OOPE9HOnTt///vfT506tcmjXRYSCwCAebm5ub17966trV20aJHZbB42bJivg7Vz585XX301Ly+vycqBubm5Tz311A033BAVFWW32/2rDnZxSCwAAOaZzeZp06YRUWlpqW+KVYuGDRu2YMECX127b0mnrg+JBQDQHQwbNsy3EPuGDRsWLVrkG+hrvq5gY0VFRWvWrKFG1YZdHGYQAwB0E7NmzSKigoKCnTt3Tp06dfr06Tk5OQGzyuVy/eMf/8jPzyeiqKiogMd0QVxDQ0Prj1ZVVZZlSZLcbrfL5eJuHB2+lgEAdHvql5vMZrPJZBJFURAEjuMURZFl2ePxSJLUvom9jbchTkpKSktLS09PT0tLM5vNdrvdbrcXFRXZbDbfvON+/fotWLCgTRey2+2iKBqNRkEQeL5DB+rQxwIA6FZyc3MzMzPz8vJ8pYN2u33nzp3ND4uKiho3btwdd9zB0CLuSCwAgO4mKSlp1qxZkydP3rFjh2+vLN/6gUQ0YMCApKSkoUOHZmZmMpRVPkgsAIDuKSkpady4cePGjevshugGtYIAAMAGJBYAALABiQUAAGxAYgEAABuQWAAA3d/hFQ/c8dz2zm5FqFArCADALlfxxtfe2PhN8TF7rccYd/3Ml/88OjnwkVLHNiwskFgAAIw6tXnBjCW29PEPznwwIz1edNntxNgEqzZCYgEAMMmxafny4ox5rywcHu/7Rnx8fOe2KOyQWAAALHLs+Hxf8vhXhjdLKenY5hXL39xhO0Xx6QPHPzJzbEaTjtep7SuWv7mj+JjLnD5w7K9nThgYT3Ts7ekzbGPnpO95c6N47yvzbuqafTVUXgAAsOj44eNi3/TUpt927Vk+e7kt4+GX8959+eHhjjf++NxmR+PHpeIVTywpSrrvT3nvvj5vNG1csGDdMSISRard/sbbxwfeN+e+wV0zrgiJBQDQnbi2r9tsHjvz14OTzebkwRNmjk/et25Ho8iS9q373DX84UeGp5rN8RljZ05It238/DARkdGYPmHhnPHDB6Z22cBCYgEAMCkpNUmy7TvW5LuO43ZKutDzSu6bRNXHGm0w7LI7pKT0JPHcP+P79jU77NW+f4gidXFILAAAFiUPuyn91OerLh7zo/i+cWS3+XPMYbdTXGqjza/McfGi3Xb8fKm765TdFZ8U1xHt1QMSCwCAScljZ/66774lM2at2LTv2CmHy3Hq8DGHefj44a6Ny1/bc8olOYrXLX/71MCxw+KJSBQlh8tF4uCxo8TNq1ZsP+aSXIc3LXlzX/rYW37U2S+ltVArCADAJvFH4//8St91q97+cMmM5fZaik66ac4rc4bP+VP18uXLH1jnEOPThz/44szR8USUOvz61I3LZ7yW/vqvH/nTnBXLV8645zmKTx08fumfxzer3uiyuIaGhtYfraqqLMuSJLndbpfLxd04OnwtAwDo9tQvN5nNZpPJJIqiIAgcxymKIsuyx+ORJKlNm9l3GLvdLoqi0WgUBIHnO3SgDqOCAADABiQWAACwAYkFAABsQGIBAAAbkFgAAMAGJBYAALABiQUAAGxAYgEAABuQWAAAwAYkFgAAsAHrCgIAMMZe6Wj5oJAlWZttb9zZkFgAAIzpglnSMTAqCAAAbEBiAQAAG5BYAADABiQWAACwAYkFAABsQGIBAAAbkFgAAMAGJBYAALABiQUAAGzAmhcAAMzLy8tbv359bW1tO54bHR09bty4SZMm6d4q3aGPBQDANpvNtmbNmvbFFRHV1tbm5eXZbDZ9WxUO6GMBALDNn1U5OTlJSUlNHrXb7QUFBS0+2u7A60hILACAbiI3NzczM7PJN4uKinyZpP0oEzAqCAAAbEBiAQCwLTo62vdFWlpaW5/rf4r/JF0ZRgUBANiWnp7+t7/9zWw2m83mtj7XbDavXr3a5XKlp6eHo236QmIBADAvlLxJSkpqXpHRNWFUEAAA2IDEAgAANiCxAACADUgsAABgAxILAADYgMQCAAA2ILEAAIANSCwAAGADEgsAANiAxAIAADYgsQAAgA1ILAAAYAMSCwAA2IC12wEAuqGioqL9+/cTkd1u932noKDA950BAwY034yYCUgsAIBuaOHChXV1dY2/k5+f7/siOjr6/fff74xGhQqjggAA3ZBGL2rAgAEd2RIdoY8FANANLViwoLOboD/0sQAAgA1ILAAAYAMSCwAA2IDEAgAANiCxAACADagVBABg2bG3pz+4ynbh30ljXs57NKPz2hNOSCwAAMYZM2e+vnCU+dy/RLPmwc0cfnv6E8cffHfOYN3bpTskFgAA68ToeLNZbOeTq487yNjeJ3csJBYAQLfjKt648rV1e4odlJw+7N6Zj4xOFYm2P3fHm9G/yrRv3LLvFKUOf/CJeaOTty+44+kdHqLZuR9f/fCbfx2f3Nkt14TKCwAA1km1rnMkiYgcm5774xuO4XNeeff1Fx9MP7TyieV7XEQkEtm+2Zc8/ulX8pZOiNuzfOUmhzh84fqnR0UnjXn54/yuHleExAIAYJ6naPm943zGTH/t8KktH+7r+6s54zPizfGpwx+ZOYo2bzwXWUnXTxg/ODU+PmP82MHi8WI7EYkiEYnExLAgRgUBABhnvP6J9X++yZ85+5Y5xNSk+PP/TPpREm2sdjV5jlkUJZI6rIn6QB8LAKB7iUuOl44dd5z/p/2YnZLi2lhA2DUhsQAAupfUUWMzjr+9ZF2xw+U6tee1FZ9LN40dHDyxxGjRdfyUI+jjXQgSCwCgm0keu3DhePHzBZPvuWfGyuKMmS/P1Agsyhh9S1/bksn3/HHjqY5rYvtwDQ0NrT9aVVVZliVJcrvdLpeLu3F0+FoGANDtqV9uMpvNJpNJFEVBEDiOUxRFlmWPxyNJUlJSUmc3MAC73S6KotFoFASB5zu024M+FgAAsAGJBQAAbEBiAQAAG5BYAADABiQWAACwAYkFAABsQGIBAAAbkFgAAMAGJBYAALABiQUAAGzAbiMAAIyxV3bEurVJ1viWD+pYSCwAAMZ0wSzpGBgVBAAANiCxAACADUgsAABgAxILAADYgMQCAAA2ILEAAIANSCwAAGADEgsAANiAxAIAADYgsQAAgA1ILACAbuXDDz+02Wyd3YqwwLqCAADdx9KlSwsKCpKSklavXt3ZbdEf+lgAAN2EL66I6IYbbujstoQFEgsAoDvwx1VOTs706dM7uzlhgcQCAGBe47iaNWtWZzcnXHAfCwCAbf64IqLTp0/PnTtX+/jMzMykpKQBAwYkJSWFv3V6QmIBALBtx44d/q+LiopaPN53THR09OTJk++4444wtkxvSCwAALZNnz79pZde8n19++23m81m7eOLiopsNlttbe2rr766c+fOp556qsWndBFILAAAtuXm5hKRL7T279+/ePHiFhPI5XLl5eVt2LChqKho7ty5f//73zuioSFD5QUAAPNyc3Mff/xxIiotLZ07d67L5dI+3mw2T58+3f+UvLy8jmhlyJBYAADdQZPQauVTbr/9diJas2aN3W4Pb/v0gMQCAOgmfKEVFRU1YMCAVj5l8uTJvXv3JqL8/PxwNk0fuI8FANB95Obm+m5rtZLZbM7MzCwoKGBiKUL0sQAAerS0tDQiOn36dGc3pGVILACAHi09PZ2ISktLO7shLUNiAQD0aL7xwNbf+upESCwAgB7NtwSGb2ywi0NiAQD0XDab7euvv6bzY4NdHBILAKDnWrp0KRH169evTRWGnQXV7QAAPZHdbn/ppZeOHDlCRKxsUILEAgDoWWw22/79+/Py8mpra4lo0qRJTAwJEhILAKC7WrhwYV1dXZNvNt6OJCoqatasWcOGDevYdrUfEgsAoHvylVQEFBUVNWzYsGnTprGyz4gPEgsAoHt66qmnms8L9m1AzNzuwz5ILACA7mnYsGEMjfi1BqrbAQCADUgsAABgAxILAADYgMQCAAA2ILEAAHqcfcvuuWfJns5uRZshsQAAGCRtXvDz6W8fa/Sdw689cMeC7a0/gf5tCjskFgAAk6TmocNiCrUFEgsAANiAGcQAAN3L9ufueDP6V5n2jVv2naLU4Q8+MW90KhEROfa9vfKNz4ttp+y1Hoq+hc5/c/lrG/fZXObUjGH3zXxkeHInNr0F6GMBAHQvIpHtm33J459+JW/phLg9y1duchCRa8+yGQs+p5tmvpi3/sOnR8X5jj22bsGCjeLYp19/9/Wnx8V/89wTrxV3atu1IbEAALoZkZKunzB+cGp8fMb4sYPF48V2IseWNz43j3163tiByWbRbI72HVm8cd3xgQ/OHP2jeHP8j0bPfHC44/ON+zq38VqQWAAATBJJcjQutfBIkiiKTY8yi6JEEtHxw3YxfWDqxQ9KDrvDnNT3/PLtYt/0eJfjlCt8bQ4REgsAgEFiclK8w3bI4f+Gw2ZzxCfFBTs+LjleOnb8VJOTxCfFu+zHz0eUZLe5zPHJXXf/ESQWAACLMm4ZlVr8xnOv7TnmcDmO7Xl7yRvF6WNv+VGww1NHjc04/sZzK7Yfc0mSy1V7/iRjk/esWr7psENyHdu+YuV286ixGR31CtoOtYIAAEz60a+fXkgrVy2fsc4hmePTM8YvXDg+NfjhyWMXvmh8beWq2fc85yJzcsbw+5KI6EcT/rTQtWTl7MnLyZw68JaFL/46o9nAYtfBNTQ0tP5oVVVlWZYkye12u1wu7sbR4WsZAEC3p365yWw2m0wmURQFQeA4TlEUWZY9Ho8kSV1z30W73S6KotFoFASB5zt0oA6jggAAwAYkFgAAsAGJBQAAbEBiAQAAG5BYAADABiQWAACwAYkFAABsQGIBAAAbkFgAAMAGJBYAQNfCcRzHcUSkKEpnt6UpX5P8LexgSCwAgC7EnwQcx0mSpH1wx5MkqXELO/jqSCwAgC6H4zie5z0eT2c3pCmPx8PzfKd0sAiJBQDQ1XDnNTQ0qKra2c25QFGU+vp6X5piVBAAoKfzZRXP8zzPK4ridDo7u0UX+Brji6tOuZWFxAIA6Fp8YSAIgsFgqKur6yJ3syRJqq+vFwTBtysK+lgAAEBE5Otj+UKrqqrq7Nmzndues2fPVlVVGQwG355YHbwtlh/2IIYWqEScwcAJAvE8cb5tPRXyeqnr1d0CdA++7osvsXz3serq6txud2RkpNFo9G2l2AHN8G0s6fF46uvrZVk2GAz+xOqsPhYSKxBBMF5+GRcZ0fwXoni88qlTyln9R5YFa4JgTSCDoflFVY9H+v4wdewNWL6XRbzqKuPllwmXXmJISOB6WXhRJEEgr1eprZMdDu9Ju/fIUffBYrmigjqkaXx8nBATE9ZLqJLktZ8mWQ7lJHx8nOHSS4gowK+SSKmp8ZadaPclOLNZvPoKzth8Y3NVdUueI0eV6jPtO/MFAm9M7Sv07k08d/GLUIlIdpzxfPd9u8/Nx/YSr7oy1BYS0fmWqYrSsGevLifsUvx3swwGg+9rWZZdLpeiKIqi+GIsfEUZvjTy307jed63RXLnxhUhsQLiYyyJf15kvPyy5g+piiJXVFQu/JP7m//qdj2TGPvIQ5Y7buMiIgL+HXiOlZ24a6Jul9PGc6brBlruHB8xdLDQK5Y3R3ORkVyzEQBVVVVJUl0uucpR//Uu5xtvScXfhbdhBkPsr6ea77gtrBdxH/hf5RML5MqqUE5ivm1M7CPTKEhi1Rd8UfWnFxRXbftOLiTEWRfNN1xySYBzK4rsqK56+tn67V+37+RExEVFxj32O/PPRnNRURTor9Gx+MVQEity+FDrMwva/fTm5FP2sp/foeMJuw5/SZ7/tpY/rjqmgLBxDYivw9e5cUVIrIA40WS8+kpDQkLAR419Uy555W8/3HSLWuPS4WIGIe63D8f9djonNv/UfI5kO6LDhVrCWyymH2fF/u7hqCHXE9/CmAPHcZzJRCaTkJAgXnlFzIR7nHlvn3ntde/x8jCNFnJGozE9zXhZajhO7id9X6KG1sEiImPGVcY+lwZ7tI7jVI+33Sf3nrJzgmDonRjwUUNycu+/vFB2293yKXt7zi4I1mfmx0y4J9jjnh+OhRKHRGRMTzMk9Q7lDE14jhzV8Wxdir+j4/t/VVUbx1W4Q8t/3cbB2YkzsXyQWAHw0ZFCr14aBwiXJFnuGuf855uhX0u88oqYSfdqxBURSaWloV9IS4Ro/tmtlgl3Rw65XrslwXCi2OuBX0X9dJTzrXdq3npHdlTr3kbOaBSsgT9D6EiuqFQb3CGexNSvX7CHVFWVqxxqKKVfbqlhz17TtdcEe5zv1Sti0HW1n3zWjnNH3zwq5t67gz2qer21mwq87cvC8wIOXYSiGycWNbqhRUSqqvI87w+qjkksajQ5jDpjkYsmkFgBGPr24Qwt/GRi7hznfGMNyaH2J+J//7jQu4WPnN4jP4R4FQ2Gy1Lj5/0+esRwzmIJ8c/ReFlq/OMzxauuqJz/rFKtd2gZDUJ8vM7nbEJVvZVVqjvUxDL0uzzoY16vXOUI8ZZk3Vc7et3/q2CPciaTMS14AzQYDDH3/yrgSKCP4nS6NnxEoa3CYExNCeXpzXl/OKbvCbugxt0s33c6bFSwyRedDokVgPGyy1s8xpDaV7zySqn4UCgXiv7Fz6Nzf9riYdIP4UksjjNmXJX08lJTxtW6ndIkWsbfIfSKPf27x2Rd61M4g5FPCG9iqbKsVDlCHNXkTEZjcnLQS3i9siOkm2RE1LBzl+r1BvtQxRmNhr4pJAhtKu5QiSIG9BcztGoi6rZsdRcWta2tTdoWGaH7xw6pBySWXxeMkA6G+VgBiGlBR3X8eIs5YvCgUK5ivDw1fsZvWnOkx2YL5UIBcaLRcu9dl775uo5x5Rf101G9VywXkpN0PGeLQ7WhUz0euaIixJMY+/YlPui7ierxKFWOEC+hnHU27P1W4wDDpZfw5ug2nZMzCJEjRwjxQcdd5SqHY8myNp2zOT4ujjOZQjxJY6ose4+X6XhC6OKQWAEY+rViqN1oNA26jotu2/vCBQJvHne78Yr0Fg9UvZJy/EQ7rxIMz0ffc2fCvLkGXUOlscifDOv1wBQuQre3p9YM1YbK4wmxSpCIhMv6al7CK1fpMF5av3mLxqOGS5K5qKg2nZC3xJhzb+YMQStunGve9h473qZzNifExuqbWEqNS9GlAAoYgVHBAAyXt1yQxnFcxKAsISHeW9ueMmVDcpL5zjs4o7HFI70nTyt6r98ccf2ghLmzhfg4jWNUVVXr6pWaGk9pqXTwkLeiQpUVQ1KiKXOAsd/lQq9eJIoaQxOcwdBr8sS6/2xu2LVHlzYbkpNbHGbkLRYuSP9GVVW1vkHV/Ekq1dVyRWX7m0hERMa+Wn88qtcT+qggEdVu2x4353EuyDRSQ3ISHx3VppJHU1amKWtgsEe9p+zO9z5oYxsDEGJjtEp7VNVTfqJNN/m85SfUurrQGwasQGI1xRkNxr6aH5PPM15+mSnz2vZ88OQoduZvxH6Xt+ZYz1Gdh+kjrr8u6e/LDJpxJbtcdZ9+Xrspv+GbvXJF03dYIeXS6J/ebLn3roiBAzROwveKsT79ZPldE9VaHd5T6r7a6XlwWqA5Tj4q8fyleatJDPwhQHVLZ1b+o37nLo1LqB7JE/JNEe36e7XBrThCnuFLJJef9B47bux3ecBHhdhehj6Xeg63usRUEOJn/iZYzYUqy7WfF8jlJ9vT0IvxcXEa3W6lvuHYsFGhVzNBN4bEakpI7s23buCCEwTzbWNqN37a1ktEjhphuWt8Kw/2HtOz7MJw6SUJC570rcgQjPT94cqFzzV8s1cNMstVLjvhfPOt2s8LEp6YYxmvNXlTvLZ/zOQJZ199PaRG+y5afkIu1xod5RMSyBj071mVpPrd3zRoJpYuDKlaieW1n9bu57WSUl8vHTwULLGI400Drq3/8qtWni1i2BDToKyg16qpcf17o+J2h36vX3tU0Ft+AnEF2nAfqyljahvmi0T/9Ga+V9vWDeJje8XPerSVoUhE3uOh3jy4QBAskyeaMq8N9riqqlKJzT79d/VbtgaLq3MURT55quKP82s/L1CDF9dxPN9ryn18jCWUVreSIbWPVgGV16M4Qi15aJnAG/to3Rr0HNXn84da3+A+9J1GibMpU6v7exGBj516X7ABRiKq27234evdOpSm8TyfEK9xM9JzvAdV/UH7ILGaas1NLD8uwmS5a1wbzs7zlrvHiVdf1fpnSEd0+89YvCI95p47Nd4y3PuKTv16utTqNXhUV63jxWXaI2lCojVyxLC2NbRdxMu0PmqoHo9cGfbEEuLiuUitYhyPXsuXyLL0fYlaVx/scVPWgFbeDjL1zzBlBe1gyTU1Z55fosu6kZzREGypDh/vD/p9OINuConVlPaoTnOW8XdQ8AqrJvjYXjH33s1FRLT27IriLStvU3s0xP12ukbFuffEycqnFrXh5gcREUkHD9W8+ZbGAVxkpOm66zTG6/RiTNW6+6hKHrk6/ImVEMeZtBYN8erUxyIiz9EflJqgpSiGSy5p1WJIPB857AaNxURq3l8nfVfSvhY2a5NRSNRMLB2HE6CbQmI1JfZt25x8Q2qK8corWjUFnaOYSRPEjKtbP/tPPlvT7iVTmxAzrzGPuz3YpVWv7HzrHXfRgTafV1XPvPGWRv0bx3ERA64J91QqIhI0F1PwnDxFIazm10otzlBRvhYAACAASURBVDdyHz2q17U8PxyTzwTdM4njeVNWywODfIwlKvfmYN1u2eGoeXNt+5vYpElGg5Cotc6WJ+Tqeej2kFgX43lDkMRSz6/w3/QZZnPk4B+3JoRMg7Jif/twgDMHX4lZrqoMfdEgIiKjwbeaeDDeUydr1m0gb7ve0+vrnW+/r3XxK9L5cO8SQiRqlzx0yGrCgtWqlViK7NVv+RK1xiUdOKhxQMT117d4EtN1mRE/DjwRXlWUuv9s1jFFOKPRELyPpXq93vJTel0Luisk1kX4GAtvMQd8yHPsmBpw6pXRGDHoOq6lJQa46Ki42Y8JgQ6TT5xU6wPfkJCrdFjmjojEK6+IuC7ovQoiqv3ok1Dmh9Z++rnGNBohMVHf5bqb4yMjtddwkvTr3GgQ4rX6WLKjWq3Rp8fsU/fVDo1HI4KX//n1mvb/gk2QUlwu10efqPUN7WxcM5zBoDEqqLhcSp2ePxzolpBYFxESEoK940jF37kDrSLIcZxp0EChpSXvon82OvK6ADM0lQZ3w+49wWZBylXVuiRWxOAfa9yrUD2eM6+tDmV5Vm/5STn44kMczxu0V4IImRAfq11+6QnnasKNmhHHBZkQRkSeYzqvJ1S/Y6cavBzcmNpXu2trGnhN9IjhwR6VDvyvbsu2kNp3MS42NtjHQSKSq8+o7hCWtIeeAYl1EcEaNLHUunrn2ncDPiRedrl2MTEf2ytm0r28JUCRd8N//+s+eCjYak+KHn0szmSKyBrIBy/3qN/2VTu3UzpP9Uje06c1Dgg21qoXjV+cj7c0/KOCBoNgTWi++6Vf6NOTm5DLT0rfBy2L4CI0F3EXhF4P/b9gDyoNDVV/WhLiXsxNiOlay3UqZ87qMwAO3RoS6yIaozpKTU3dpoLAPQmBt9w+RuO05tvGRgy6LsA5Janq2cVcdFTA6kFVVb0OR+gfPLmoKKPmcre1+V+EeAnyemWn1hJK4b6PxcfFaxXpKWoHjApyRoP2yKT3mP7zjeq2bA3aHpNJYzMq8UdpGks51278JMRl2gNcUXNnLLW+no+x8ImJwf4nJCbyiVYueC8NegKseXERPiHwG5+qqvKZM8pZZ82Gj2IfmNL8gKibbuJiY9QzAd61hUuS4v84u3k5lqooNf98Qyo+FDPp3sCFG7IsV1WHuJcSEfHRURorQilut/vbfSFeglSVJK2lHNpQ0N8uQkK81g2kykrS735MMJzBKMRprX2l+6ggEdVv3Ro77cGAHTvOZDIGm6PGcRFDsw1BNmZTamrOvvbP0P/wmjBoJlbksBtSv8xv8STVf3vV8ecX9GsUMAZ9rIsYgt3HkmXFUU2q6lq3PuDYBRdhstx9Z4DvR0UmPPlHIVAPQzp48MzqNzmD0ZBgDdgY1eNRqnRYNVW86go+OuhK3vKJk6FvZNXye5uu40vNaSeWXitNtMBo0NolWVU9ui645eP57rAcZDyWEwRDagoFWm2Zj7FE35obcCFmVVVrN38plR7Vt51EZNQcFWwlz5Ew78cNXRsSqxFBEOLjA35cVT0e307wnqPHpEOBl4SIGXd786nEUSNHRN04IsAJJcn57jpv2QnOaOCDLEqrerwa5QytJ/bXGhL02k+HXg/GcRxpbgWiY8lZwMvz8fEaDeiYTf84o1Fju0Klrl6p0mEN3Kanra93F38XpEGc4ZLkgB9WTFdeETlkcMAnqbW1tR9/qsvixU1oDFG2nufI0dBPAuxCYl3AGYPucqt6vV5HNREpLlfDf/8bcPqUoW+fJssvcdHRlnvvEuJimx8s/XDc9eFHpChkMATd9cPr8eqxM4X28kXy2TOqJ+QaLV7Q6MYRkVwV6i4eWowGQ0K8xpS40Dd2ag1OFDU2cJEd1UoYKguU+nqp+FCw+XxCwI2yOC7moanBuqTu70t0uK/ZDBcVGWwQsvWU2lqlOuikaegJkFgXcBqjOh7vuXVUPd76Pf8NuIkcb7ZEXv/jxrthRP10VOTIANXDqtvteOZPvhNyRqOQEPiiqser6LEUHp+ktTarWuMKfTVxzmDQXtVCx7WmAlw9+M/Qx6PfvF0NwqWXaGx4ptfUuqY8Xum774Od2XjpJc0LysVrM6JzcwMer3o81c+/SGGoMm/Tcp3ByI5qpSHs9yOhK0NiNWIwBts1SvWeGxUkIvfe/wa8vcQZDaZBWf46dS6ul/XJPwSsKa9Zt75u87kSLy4qMtjq76okyXosN64xCYaIVMlDSqj32DnRKCQGvhtHRKrXK4VzMIczGLV3p/SGoeShOe1aOMXhCFP1tvfID0pNTcCHuOjo5vMKYh+YEixZ6/7zRf3O3Tq3j4iIjG1crjMgxaHP9ERgFxLrAs5o4OODd3eqzyWWt+xEQ+H+QM/3TSVOICIShPjHZxr6XNr8KG9Z2ZmV/0fnd+gw9k0JNoPHe8quy1J4vMaur0Sq7FXVUDclMqSm8EGmlBGRbLerZwO/pepCu6xcqamRz3bEUFLQ3aqIiEgOW2J5jv6gBKmd4Tgu4uLNZYyXXxYx9IaAByt19dWN/jL1ZdRjQp58plptQGL1aKhuv4CPMAkJgT+qyw6HUlfvH/Creeddy7hfND/MmJpquibD88OxyKFDzL8IMENL9Xicb73buMrZ2C9oAZWnVJ+yKO0ZXZwocjwfYicramSA6hI/yVYarBOgD6PREHxUUK5ydMzbnLGf5v3CynAlluxwSIdt4o/SAz5qymq00grHRf5kmBBoyw9VVeu++srz3eFwtJBaKm33OhzOf77Z4kmk70uUIKvDQA+BxLpASEoKWApMRN5jxxrf1q//eo+3rMyQ0vRjIycI0beOrvviy5h77gy4bpPXfrrmvXXU6L6RGHyTdb0qjOVarbTgo6M5gyHExIq+JSfYQ6qqSoe+155fHCI+OlpjYqlcpcMs7NbQSCxVUWSHg7zhKfFXqWHH1+Zbbwn4oGlgpsITrxAR8RZz1OicgAsJqnX1tR9vCt8HC1Fzo1TP94erX3o5TJeG7gSjghcY+l0WrN7M02SvOY+n5v31AY+MvHGE4fLUqNyfNh/rU2W5evnfvSdOXnzRoInlPapPTbZcflLjUSFeayZTaxivuVrMCLpHpep2uw8cDOtOH8bL+mqsjSQ7HKoU/j4Wp3WrRvV4dJmoEEzdVzuDlQsarAkR11zj+9o0cEDUyJ8E/CP3HjtW+9nn4WqfwSAkae2M5TnaESvrQzeAxLpATAs+QNdsHVXXRx8rgZZyN1jje7/wp4BThusK/lPzbtNdOYyXa1xUn/+MJc2NNgx9U4KtatgqPBc75T6Nx5Wzzobde9p//lYQ+6VpPCpXVnXAqCBvTQi4buQ5Hq+sx2TwoKcvOaxRjRnlK1g1GOLnPh5wKyxVlqteeEnVaSe25oS4WC5Sa9ETz2EkFrQKEusC42WXB3vI22wKqvfkKff/igMebAq0y4P39OnqZX9vOi7Ec4YgO+cqiqJXfZ3720KNRw2XXmJI6dPuk4tXXhH5k2EaB9R/9ZW37ES7z98a2pXT4St5uKgNmrVwqtejnK81DQtFqd+2PdiDEdf/mIgiRw43DcwMeED9jp11X3wZrrYR8bG9WtiauUNW1oduAIl1gcZ9iOarbiuuWvfeb9VAhVXNR11URan58CP3d00XyxCSe/NB/ktWqxxUF3jTrLbyHC+Tg79dcoJgHvuzdt7HEoTo239h6BM08BRJOvPKKt1XqGvCGHxkVZVlucoRpvq3xrS3rlY9Xm84RwWJqG7Ll8EGBsWrr6bIiJjJEzm+6ZosRKS6pTMr/q+dm3m2jhAb22FbM0P3hsQ6j+eDJZbqdntPNdsdVZbr93wTrKq4Ce8pu+ud95pPzNS48yHpuFltba1bc7Na8+1jDZp1bsGYru0fc/c4rtnaVH41762TDgbYVExfGvWWqscjV4ZxOO5CG7SXINJpiUgN7n0HlDOBV4HiIk1Ro0ZEXHtN84dUVa37epe7KNBsDf0IcXEau5epHq9et2yh20NincMnxAe7neM9cTJglVfD3m9b+W7o/Oe/pO8D1A0bgwwJkq57KSm1de7CwoDdQR8hJsb6x983XxRRG5eQkPjinw3JycEO8Bwva03JcqiMxoDz3s43whPWG0h+wUZ3fRSnUwnbXaJzl3C5pO8C75XFiaL5Z7cGXM9FbWio/WxTKz94tRsfp9XHkitOq1jJAloHiXWOMTUlWKGgtzzwPW2lsqp+59ctnrlh/4EzrwYeGTP0DdrHknVcpkFR6nd8rb18RtRNI823jaXgFXdNGPpckvzqX039MyjID02VZdcH66XDtja3to2MlyYHrCY41wyvV64O5w2k88RUrVFBz7GycA+NqvX10sHACwzyZnP06JyAmeE9car2o8/C2zaOE+JiNdavalqICxAcEuscMfiwmMbK3zXvfqD9X7vscDieXUxBtjbX6GPpuwNhw95vtTfo46Oi4uc8Zh53G/FB15M9h6PInwzt/fJLkUOu1zhK+l/x2TVvU8grFrbIoLnOr+rxKOEfFeSiIvngq7aTfpPBNahuyX3ou4C3ozhB4M2B5qup6pmX/6aEO9ENBqF3YrBPNtRhe8FAt4DEOkcI3t3xHg9aN+wuOhBs8xHybTX06aaG/34b7ABD8A/mHl2XG1fr6quX/U0NEpw+xtS+1kXzrc8vEpKCrrFtuCzV+qeFvf/6l4jswZwQdBRRdboq5s5rMvMsTDR+hqTfji3atHfnoo7a7sRz5EibpgA3FBa5/v1J+NrjwxkNGmtOkq4D4NDtYc2Lc4zB157wHA8+QCfLNe9+ED//jwFHFBVHdc2769QgJX9cdFSwNXAVl0sJtJ1xKNzf7ju7+l+97p+iMdlWiO3Va9Ivo2/JrfloY93nmz1Hf+C8XuI4PsZi7J9hzr056uabeLPm5C1VVVyu079/wl10oKXOmj7E4B81iEiurOyIyVjxcQEXkvDrmOptz9FjirNGY4+uxlSv58zfXlGlsK8GwhmMglUrsdSG+rbNr1BV+axTdQXYPwG6PSQWEfkWLAg8QKcqiqy5U0bt5wWxv5ve/G1CVVXnW+80/DfoXCghISFYAVWYdqY48/KKiAHXmgZfr7GVFBEZEhPjHrg/9v6p5PGq7gYSBC4iQiPnGlPqG6pf+Evd5//Rqckt056M5dGcPa1bGxKs2n0svSaDa5Ptds+x463cOLFh77cNe74Jd5OIiDMatXfGsj79VMKCJ1t/QtXtrlr4nPONt0JuGrAHo4JERHy0WYgNvL2TWluraK6J5z1xsvbfH6tN7h8ocs3ad6v/ukJjJpDGUJJcFZZJr3JVtWPpy/LpitYczHEcJxp5i4WPimplXJHscTz/wtm33u64LSF4TmM2GHXUPRIhPk4jsdSGBu+JZrMjwkFW6ne1ankRxe2u3ZSvMUtPTy2NCpLvj63VVI/HW9Gqv2HoftDHIvKN6gQLD0e1ormOqipJlc+94D5y1PKLsXxCLBHJJ08716x1fbKJNIdchLjYYENJcpj2AVLV+q92VC54JvGF53iLRbun1cYTq3JFRdXTz7k2bNTrnK3Bx/TizVp7H3s6ZGoqn5CgkVieEyc7YAqzT8NXO2j2oxplDj6y/bTr3x+Hu3zRh4+K4uO0dvtsM69XrgjnltbQhSGxiIgEa9B3nNas8aPW1TlfW+18bXUbL2rlIoJctDI8+9USEVHtR58oNa6Eeb8Xr76aa7EysDUUuX7Ltuq/rWzY818dztYWgrWFkgdPafiH43heSIjXmM3WfImv8GkoOiA7qgPuG9DYmf97XT5p75gmGS9PDbjWRrupHo9sRx+rh8KoIJHm+uWyozpMd6e1OnZh2mH9vPovt52eObt+e9CV6FrPe/JUxbyn7Y/Oadj1TYf1JPxaXHjeG869j304g0GIj9PosHZoLZwk1e3Y2cIh3x+uWftuxzSHWtrosh1Ujxejgj0WEouISEiIC7ZSp1JdHZbdlThOiIsLtpC27KgONoVLH6oqHTx08pdTK59+1lt+Qm3jViCqqqqSJFdWOt9+v/yOe51vvKWEv4I8ICE+XmOJVfnMWVnvkssAjAbtPo3neIfOkK3fsk3jUVWWq/++Uq3vuDUmBM3SmHbw2u2EnYh7KowKEhEJwe9DhKkIgjMaBWvgtznV45ErOyQAFPXs//2zLv+LqFtujhzxk4jrBvKxsdo3t1Sv11NW7i4qavh6T/1XOz22sE+M1aY9KujtkLILzmjkNROrgxfNa9jzjVJbywdZcsy9/0D9Vh361q0npmntBdMOHVP/CV0TEouII6m01Ln2HaJmb9aqUr99ZziWtVZJbfh2X8DOjepukA5qLVyrL8/RH87+3+qa99cbknqLA66N+PF1poyrDCl9uNhY3mBUPZJSWyefPOU5elQqPlT/zV7v8ROyo1p1uTrmvn0LjT9WVvPuB8EWl+qYH6Pq8dZt2Rp8wV9VCrIrTZh47aerV/7DkNQ70N+z2rDj645ZGtjP/c1e7/HjARrTXnVfbNHrVMAcrqEta1CqqirLsiRJbrfb5XJxN44OX8sAALo99ctNZrPZZDKJoigIgo4VvN0S7mMBAAAbkFgAAMAGJBYAALABiQUAAGxAYgEAABuQWAAAwAYkFgAAsAGJBQAAbEBiAQAAG5BYAADABiQWAACwAYkFAABsQGIBAAAbkFgAAMAGJBYAALABiQUAAGxAYgEAABuQWAAAwAYkFgAAsAGJBQAAbEBiAQAAG5BYAADABiQWAACwAYkFAABsQGIBAAAbkFgAAMAGJBYAALABiQUAAGxAYgEAABuQWAAAwAYkFgAAsAGJBQAAbEBiAQAAG5BYAADABiQWAACwAYkFAABsQGIBAAAbkFgAAMAGJBYAALABiQUAAGxAYgEAABuQWAAAwAYkFgAAsAGJBQAAbEBiAQAAG5BYAADABiQWAACwAYkFAABsQGIBAAAbkFgAAMAGJBYAALABiQUAAGxAYgEAABuQWAAAwAYkFgAAsAGJBQAAbEBiAQAAG5BYAADABiQWAACwAYkFAABsQGIBAAAbkFgAAMAGJBYAALABiQUAAGxAYgEAABuQWAAAwAYkFgAAsAGJBQAAbEBiAQAAG5BYAADABiQWAACwAYkFAABsQGIBAAAbkFgAAMAGJBYAALABiQUAAGxAYgEAABuQWAAAwAYkFgAAsAGJBQAAbEBiAQAAG5BYAADABiQWAACwAYkFAABsQGIBAAAbkFgAAMAGJBYAALABiQUAAGxAYgEAABuQWAAAwAYkFgAAsAGJBQAAbEBiAQAAG5BYAADABiQWAACwAYkFAABsQGIBAAAbkFgAAMAGJBYAALABiQUAAGxAYgEAABuQWAAAwAYkFgAAsAGJBQAAbEBiAQAAG5BYAADABiQWAACwAYkFAABsQGIBAAAbkFgAAMAGJBYAALABiQUAAGxAYgEAABuQWAAAwAYkFgAAsAGJBQAAbEBiAQAAG5BYAADABiQWAACwAYkFAABsQGIBAAAbkFgAAMAGJBYAALABiQUAAGxAYgEAABuQWAAAwAYkFgAAsAGJBQAAbEBiAQAAG5BYAADABiQWAACwAYkFAABsQGIBAAAbkFgAAMAGJBYAALABiQUAAGxAYgEAABuQWAAAwAYkFgAAsAGJBQAAbEBiAQAAG5BYAADABiQWAACwAYkFAABsQGIBAAAbkFgAAMAGJBYAALABiQUAAGxAYgEAABuQWAAAwAYkFgAAsAGJBQAAbEBiAQAAG5BYAADABiQWAACwAYkFAABsQGIBAAAbkFgAAMAGJBYAALABiQUAAGxAYgEAABuQWAAAwAYkFgAAsAGJBQAAbEBiAQAAG5BYAADABiQWAACwAYkFAABsQGIBAAAbkFgAAMAGJBYAALABiQUAAGxAYgEAABuQWAAAwAYkFgAAsAGJBQAAbEBiAQAAG5BYAADABiQWAACwAYkFAABsQGIBAAAbkFgAAMAGJBYAALABiQUAAGxAYgEAABuQWAAAwAYkFgAAsAGJBQAAbEBiAQAAG5BYAADAhnYmlqqqHMfp2xQAgJ6G4zhVVTu7FcxoT2IhqwAAdIQ31VZqZ2L58AnxujcIAKCH4BPi/W+nnd0WNrQ5sXw/WY7jeJ7nr7oyDE0CAOgR+Kuu5Hne/6ba2c1hQHsS61xc8Tx3RXo42gQA0BNwV6Sfey9FN6t12pZYF3WweN4zOoeMhvA0DACgO+OiIj2jc/yJRehmtUJ7+li+H7EgCFzfFMP/eyAczQIA6N74//cAn9pXEITGoQXa2ll5IQiCwWAwGo3u8bcJV1+le7MAALox4aorpV/8zGAwGAwGQRAQV63ENTQ0tOkJqqqqqirLssfjkSSpoaGh/syZyLff9+a9TYoSplYCAHQTPG+YdG/9xLuj4uJEUTSZTEaj0RdayK0WtTmxiEhVVUVRvF6v1+t1u92+3BIOfWcs2EJHf5BLj6hnzoajrQAAjOJiewlp/eiyVCnnJiXjqoiICF9c+bpZGBVspXYmFhHJsizLstfrlSTJ4/H4ulzKeb5jMJcbAHqyJtVqPM+LoiiKotFoNBqNviFBQRAIZRet055KP9+yIjzP+/8pCILvF+AbMPSNHBISCwB6Nn9i+d4nOY5rHFS+sgtCXLVaO2vTfT9f/zQCnucVRTEajf4Oli+r8GsAgJ7M/07YuJvlL7dGXLVV+2dTNf7s4Luz5QsqpVH9BfpYANCTNU6jxh/x/XUWiKs2CWn+r/9n7fsd+EcCEVQAAI01jyhkVTvosGJFk587fg0AAMHgHTIUeq6xhN8EAACED/YgBgAANiCxAACADUgsAABgAxILAADYgMQCAAA2ILEAAIANSCwAAGADEgsAANiAxAIAADYgsQAAgA1ILAAAYAMSCwAA2IDEAgAANiCxAACADUgsAABgAxILAADYgMQCAAA2ILEAAIANSCwAAGADEgsAANhg6OwGdC1er9flctXW1sqyLMuyoiiqqnZukziO43leEARBEKKjo81ms8HQcb+1srKyTZs2ffXVVw6H4+zZs06nU5KkDrs69GSiKMbExPTq1Ss+Pn7EiBE///nPk5OTO7tR0Mm4hoaGzm5D51MUxel01tTUuN3uzm5LyyIiIiwWi8Vi4flwdZGrq6s3btz4ySef7N+/P0yXAGirQYMGjRkz5pZbbomLi+vstkDnQGJRbW1tVVUVc10HURQTEhKio6P1Pa2qqlu2bFm+fPnhw4f1PTOALq644opHH330xhtv7OyGQCfo0YlVX19fUVHBXFY1FhERYbVaIyIidDnbnj17Fi9efOjQIV3OBhA+WVlZs2bNuu666zq7IdChem5iNTQ0nDx5Upblzm5IqARBSE5OjoyMDPE833zzzaxZs6qqqnRpFUC4Wa3WxYsXZ2dnd3ZDoOP00MQ6c+ZMZWVlZ7dCT1arNTY2tt1PX7Vq1fLlyxVF0bFJAOHG8/zjjz8+derUzm4IdJCeWN1eV1fXzeKKiCorK+vq6tr33O3bty9btgxxBcxRFGXp0qXbtm3r7IZAB+lxfSyPx3P8+PFu+e7M83zfvn2NRmObnnX06NEJEya4XK4wtQog3Mxm89q1a/v169fZDYGw63F9rFOnTnXLuCIiRVHsdntbn/XEE08groBpLpdr/vz5nd0K6Ag9K7FcLhcTM67araGhoU1jg59++mlRUVH42gPQMb799tsvvviis1sBYdezEqv73b5qrvWvUZbll156KayNAegwf/3rX7tB6S9o60GJdfbsWa/X29mtCDtJks6ePduaI99///2TJ0+Guz0AHaOkpOT999/v7FZAePWgxHI6nZ3dhCbcn84YdO21g2Z8qvNAZStf6fr16/W97kWsA3NyhvQRu+TZujIx5y97S0pKNsxO0+uEI57fUVJS8tnsDJ1O2IWF908auoCeshKuLMv63MHa9/wvpr9b7iZJkki0JPTpN3D4PY88csfVMe04l7vRFyYd2uY/ndsty7IgCBrHVFRU6LJmoGXghDlzpuZkpCTGkNtZUVa4du7D/9gn9ZmybM2T2aaDS0bf/o/SkC/SvrOJfYbkjsgwlX68bndbBoMHzt6wZmp/k+8X4nZWlJUW7964+tW128o7dm0UPf8itFgyxkybMiYrvY+Jaip2vTr/xW1Bf1rWIQ/NmzM+OyMl0UTOioqyXa/+4bG3izuona2xf//+06dP9+7du7MbAuHSU/pYupXDSZK7RpJM1szMwZn9rFJ50Rd5T94/883Q35X11eLr1ec2dcZDr695ZmJ2eiI5yyqcblNK+sjsdCIiZ2lpmdtdVlyqS7+2XWcTs363eNkzT04Z2dYPEyaTyUTkrCizlVW4TYnpWSMnPvn6v99bNMLaxhOxIG3Kyrxl0+7Mzc7qn5WVnTsmN2hHVhwyL+/1OWOz0mPczrIKtykmpX92dtfr9m7evLmzmwBh1FP6WPpOOxOvfvDlf95rJXKXvjl90uI9e9Z/UXpfml7DOHposUO5b9++kC8iDpk4MctEFfmP3v3ox+USEVnSRmSQREQ12+bfem3gemORqK2dFY2zaUiMSSQiydmurnVF/tzRf9gmEVnScmYsWjQ1u//EZYsLRz+4rnvV7gycODE7hpy7ljzw6OpSSs/KEoP1JMWRU8enm8i29oHJ87dVEpFozchOc3a5NTmxKmb31lP6WGEqIjKl3Xzz1SKRVFNDRESVX702+5e/uHHooEGDbvzF/fPeOdS4U1C5753nZ/zylqGDBg0adOP9zbpl7n1/+eXQa6+9ccan5aE3rMXXq8v6gTHWGCJylpdWnHvjqindtruUiMgyftWBkpKS96ZYiYjEjPGL8j7be6CkpKSk5H8lPnlTrOL4VQdKSnaseGjK83mf7Thw4MCODX+ZMtDS7DoXnS1j3mclJSUbFk2YvWLD5r0HDuzdnDcvp8/FTxCHLNr8v2W5JiLKmrOlpGTzi/TmagAAEdlJREFUvIEiEVkH+i5UUnJg72d5z08IcKlmakoLnnt47gdlRDEjp0w9dy9ITMuZt2LD5r0HSg7s3bFhxeycNJGIqM9D75WUlBzIm+DrjQ2c91lJSUnJjr/kiBdexd4VY8TWvIQLryXwtYgoY8LzeZ/t2HvgQMmBvZvfu/jlWIdMeX7Vhs17D5T87/U7E4O9ONFkMhGRs7SwuFKqqSzeVrAvWCKbrDExRO4aW+m5I6TK4m27fX+qfcYsWrVhs68hOzaseGiIlYj6THnvQElJyQb//TPfDbXzPx3rkCl/ec/3qja/95cpQ1rxq2iVnlAP3JMhsULjPLSvVCLLVZm+6fblX2344pDTZO3Xx1JzZM+GZ6Y9+em5/37KP539y/ufyfuiqFLs069fvxh35cWfTis/nTdnVRFlPvjykp8Fe+9qgxarIvX4D1sqLSxzE6VPXfX6vPEZF7/liCb/fRhLzuJViydmJ1bs+uCD/INOIqKKwvyNW0vdvq5gYu6cJ+/MiHE7yZTYf+yTy+aNaDbU1Ohs57qP/Sc+M21kIrndppiU7KnLFk+56IcmVR4sLLQ5iYicZYWFuwptNZI4ZN6qNU/emZ1iqrDZnKb07DufWZM3e2BrhrVqtv3r44NElJ410EpEfcYvy1s5Nbd/orvMVkGJ/XOnrcxbNsZKVLGrsIzIlJGdJRJRn6ysdCKixIzsdCISs0dkmMhdWLBLas1LOCfotYjEtJFjs1NM7oqKCndMStadz6xclGM596QV76158s6R/RPdZQcPlgUfS5WKdxVWEKWMmTOjpfR2l5aWEZmy5uStmp2TdtHBYtqInJHpMe6KijK3KbF/7pyVyyb0ofKC/GI3UXr2EN/rErNysxPJXbixoJLEIfNWvf7k2KyYiuJdxc7ErLFPrlw5RZ8xihMnTuhyHuiaekpieTweHc8m7Xlm1LXXXjto0NDRcz6rsgx+9LGf+m6W9Ltv+ec7v/z8ow8++vKjp4ZbqOqr9V85icj56V+e/+yElDB87potX370wQcffPTWY1c3Ot+h12Ys+qzy0tufffmxgbrccW/x9ZaX69CTK1373NqDbqLE7KmL/71zc96iprlFRCSOHD8ykejgq488+Ic/PPLgkl1uIlPFx3P/sa2GfGOXFflzRw0ddtOo254tdBOlZOdmacaIk4jIfXD1XUOH3TRs1AMflBGZsnJHXHTl0rcfm/SPQiKi0tWP3j35sbdL0ybOmdjfRLYPHh590623Dhs9N7+CTP2nzhjfqrtTtuJKN5HJmpJI4ojfzc5NJOeuZ28bdeutN42atPqgmxJzZ88YKJ4LgJiM7AwiS1Z2GpWVlbkpJWOglSgjOyOR3MVbd1W27iUQkda1iKTCv04aNejHw266adioSattRIm5E3MtRNbxi+blppCz8NVJo4bdevvd8/Mrgr4ud/G2wgqimKxp7/+3pDF/R/E8affLz31gc5MpZeS0lZu2fNaosycV/+vh0UN/POymm24aeveSQjfFZN+Z04fKC/JtRKaMkdlWIqKM3CEp5wKrz8QZE/ubnFufuu3WuyfffdsDa8soJnvixIGt+U20RJc/bOiyekpi6cxyaWZmZubV/awiEdXsWbHoHd8YX0yfNPHIV5+uf+fN1z79TrIQSZVHThC59/xnexWJmb+ee9/A5nUAlZ8umrGsSBw+95X5P2Xs5n7N7ufuvu3RV/NtTiJTSvbExe/lzR7SPG6ahfDF36goLS6XiKTS3btsRBRjaU2tRHlhcQ0R1ezaVuwmMlligg59ERGRdUhuhomocN1ffaVw5RtXF5QRmbJGZreqeOB86aDb11Wgiq2r15ZKRFSz+9W1hW6ilIG56ST5WpOSkWEVM7IzYpzFawvKyJSWnSVaMzJSiGy7dl94Q23xJWhei6i8uNiUNWbCQ7PnzRjbx+0mMlmtiWQZOSY7hsi2bv6LLdRIWobMXvPe4txGV3WW2c4p3FrctGtWWfCHu++eu3ZXmZsoJj132sr3Xp+SIRIRVRYXu9PGTJgye96ciRnkJiJreh+RSgu2HSQyZeVki0RpuUPSyV2Yv62SLCNGZpmInO70ibNnz549baTF7SZKSUvvcmUc0OX0lMoLQRB0XE7QX3lBVPnp7F/O+Wz7shX/uePFn9b8Z9G0J9/9rqbRoRIRUWVllZuILr000LiPVPTFF0TUr08fq34Fzdql7URktVr1qZ+USj9+8ZGPX07LmbFo0bTsxP5TZ0xcO/lfjd7tpF0FW525uf2nrViRstudkZNtIufWgl2Bbtm7fU8ztenn4Ha7iUzUQsolplhMRO6K8vP9DancVkmUEhNjMbVcCiJmZaWZiJzl5WWUeO7mnb9EwVle5qTsxJgYi0g1u7YW08istKys9JiBKe7i1R/vck+bOjYtKz3Lmmaist35tra8BK1riRkTV656cuTFKRdDlJhmNRG5y4sDXamxjGmLpmXFuAtffeDh1TR15cppWTGmyoK5D7y4rybYU2qK182fvG5Jxvg5i+ZNzIrJnvG73HWPfJw4/i+rFo1Naf5bK/1428Fp/ftnjcgWC9Oy08ldmF9QTpSWYjURUUru1GmNDnbqs36a1crYpz5ok57Sx2rxHby9rDf/LFMkcp84UUn7Xlv87nc1l9767Ptb9h448O9HM89/ZrTEWIiIThwJNGAhDp/84GALHXl33px3dBvQaE1i6XUtIiKptODFB+ZvrCAypWU0KXmuXDd/yS43xaTnTpyYm+Yu3Pjsw3M7vOSuoqzGTWTq0yfl3DfEPulWInI6a1p+o7TmTs1JId89KKqodBJRTB//qzT1SYkhIqezUiIqLyy0ESVmZI3ITqey4t0VhYWlROkZI7IyEqli19biNhXXaVzLlPu7GSMTqWzj3LuGXnPNNQ9/cD6KnRU1RGSypqVrn9syMCudiIrz1+6urNz94gOPrrW5TVnTVi4e09J91JridfMfXrLVTRTTJyNFHPHQ7LEppoqtz04aNeiaa+5a3Sgpiz/eZiNKzBqZPSI3w+Quzi8oJyJnhURE7l3PDr2ikR8/8rEehYdIrO4NiRWi8i8+LZKILP36WammsoZI7DP4J1dbTdR46Ctm8M2DLSQVvfnMa3uav1WbBj64ZP6tl1LV9sUznt+nz8IcLb7ehISEkC8iDnlo0UP+u/CWjKyUGCKqqKxp+s4Tk2IxERUuGXXFtT++6e7H/tWmGb0hcBORmBhDRFS5e6vNTdR/4kM5ViKiPmOn5qQQOQsD9/YusGSMf37VotxEctvWvryxkqTirYUVRIkjp07MEInIMnDaxCwTkW13fhkRke/hlJzxaaaKwq02yVlYWEamtDE5KeQs3NbCxS4wmYg0rxVjTYwhcpdu27qvUpIuzEanyt2FB4mo/8TZUwLcVWz0w6mscBJRxphpOX1EopptS+a+XOikxNzFKxblNJ9nZcmZvWjKiPPft2b072MicteUVVBiYgwRle8q2F1eI0nSRR8AivO32YjSh0wbm2FyF28sKPe1cJeNyJQ9dd4Yf92jxaJTsaAef9jQdfWUUcHIyMja2lq9ziYdypsz7QtRqjlReuhIlUQJwx958CcmqvzpYMtnX+xZ/Mv7t2cm0ImiI/63J+vPHntkQ9HiPXuW3X/Lqkv7WE1uy81L3nqQLjw+/7l9303L+y5vzqKB/3wx9GrBqKgo7QP69++/adOmEK+SmDV+zpyJc9zOigqnKTElxkRUsfVfa4uJLn77qSgud1L/rDlbSuaQ21lRUVa66/+3d7+hTaR5HMB/jckMqcmI0LExHWvriLYB73LQvXAthEMUrioeVbq34XpQWzhpX6wt7LUL1+sLz0Ol6tUWzo2cdxXurgu5FLYkeMeUVeKpxOuL6ZtEkFStkyuS4ouJGGZUei/q1lXXtq7502m+n3ctk2d+k5Z888zzzPOMDZ25fDu3y2YpyRSR4Gr901fu6OXez0fPjB264BMPX/i3J5EiXhQ40mT/UOi705Pfe3zcrbEcL/AcEWlKqL9zYEonovTE8FDU+3uPpy9wzZdQOVHkWVJCw/4pnYhIl6/L2uG9oshpkWFZJz0eldXWAy6RtMhEZAWBlZpTiTjx0KlTcvvn4Xeea06PxjS3y3s8ENg/rbIV7oXbgyxRfGQ4uH/wsODtG792NJHSOIEnImLfCCE9MjIW29vqcvkuXPNpqkpquK29X/rb4F6X78K1Q6o81NJ88dWCFmyFx9d31NenqamUxvI8xxIpoZHwnM5Jsub1uD8NfOWNz1FZrfDts8RD15VW0eXxkCa/DCyi+MhwaP/gAeHA4Lj3s4SisTwvJId+2nw5C99k3G73hzcCq1ax9LHWr1+fnYYYhmWI0vf+e+PGjak7KlvT8HHvF/8Y+sU2IiprPPHXEx83VNOd/3x9Y2qOrW74eVdno5OIiK351Rd/H2j/2Q+crDaXTM6R3Wl/1QljibiPuge6P7LT//51/Dd/vvPBd/RtNtvSB+zevftDz0F6PDwWiSkqcbwgsJoSk0a6WjrGXn4sLV6D/cef/trLaUpMluVYIqVxgstzuO8vg5+8yuXXr/e7BjTe/NVbh7yVfvpt/5lgLKWxgriNZ4jS1/vbOwZCskK8IHBqLBL83S/bLk69K0M4QRRFnlUTciQ40HHwYPfY9DeHTn/Z0dI7GkmonCDypMiSv6OlN/zNp21ajsoaEWlyJJomIl2Oxr/98zKXoE+N+qWESpwolnFLnSs+1Nnll2Iprtbr9dRyaiwa8l8MK7QwRaLtRDAaUzROEHhWVWRpdFR685azPvWH9raBkJxIqRrLsWpSSU+Hu9p7g7KiEcsyrw+rqbeDwejLPzbPqoocGuho6Z9IEyW/7GobCMkpVnR7PbW8psjSiD/08t3S46EJhYhosYdFRDQX7m3p8EuyorGCyyXwpESlt2Z6fD+NjY1ZaQdWpyLag/jhw4dre3OsRSzLbtmyZdnDfD5fVpYWXBrzw9+O/7NViJ442HJ5YUIlU/tZIHDUpUkdP+mcWHVrJoCB7dq1a3R0tNBVQA4VSx+LsninfNVb4ZXu2bMn15UQEQnbFm4TvfZlgSVKJfO8tCyseXn6l4bCKaI+FhHdv39/zW+RZTabq6qqVnLkixcv9u3bl/MnLsv2/3F88ABPaiISkZMau83t9YhcSupq7gzjYU/IGqfTeeXKlZzNsYJVYV1fX1+ha8gfs9mctUXcV6tNmzYxzIoexTSZTGVlZZIk5bagp3evXp02Oxxbd7jrfuQWHawav3qpv/vURBL7xUIW9ff379ixo9BVQG4VVx+LiGZmZnR9zd6NYhimsrLyvV7S1NR09+7dHNUDkB/bt2/Hdo7FoIjGsRY4HA6TaW1etclkKi8vf99XnTx5ctmJhQCrmc1mO336dKGrgHxYm5/dS2AYxuFwFLqKnHA4HOz7LXBERFRTU3P27NmSkpJclASQayUlJefOndu5c2ehC4F8KLrEIqLS0lKeX3rdVOPheX7Zp4bfpaGhoaenJ7v1AORHT09PfX19oauAPCm6caxFmUxmdnY2i8vjForJZNq8ebPVav3Adm7dutXd3b3mZ6bAmmGz2c6fP+/xeApdCORP8SYWEem6Pjs7m92ts/LMYrE4nU6LxZKV1qanp48dO3bv3r2stAaQO1VVVcPDw9XV1YUuBPKqqBOLiObn51VVffz4ca42Kc6ZdevWbdy4ccOGDdkdgtI0LRgMXrp06dGjR1lsFiBbysvLjxw50tzc/D1GbcHoij2xFqmq+uTJk6dPnxa6kOWVlpba7fZcL+ERCAQkSbp582ZOzwKwcvX19Y2NjU1NTYUuBAoGifWa+fn5TCaTyWR0XX/27Nnz588LPtBlMpnMZrPFYmEYxmq1Wq3WfM7r0zRtcnJycnLywYMHMzMzyWQynX7nfn8AWWS32ysqKiorK7du3VpXV1dXV4dOFSCxAADAGIpxdjsAABgREgsAAIwBiQUAAMaAxAIAAGNAYgEAgDEgsQAAwBiQWAAAYAxILAAAMAYkFgAAGAMSCwAAjAGJBQAAxoDEAgAAY0BiAQCAMSCxAADAGJBYAABgDEgsAAAwBiQWAAAYAxILAACM4f82avhPBwfdAAAAAABJRU5ErkJggg==;" vertex="1" parent="1">
          <mxGeometry x="-760" y="-280" width="520" height="506" as="geometry" />
        </mxCell>
      </root>
    </mxGraphModel>
  </diagram>
</mxfile>
